<svg xmlns="http://www.w3.org/2000/svg" xmlns:xlink="http://www.w3.org/1999/xlink" width="129.5" height="165.489" viewBox="0 0 129.5 165.489">
  <defs>
    <clipPath id="clip-path">
      <rect id="Rectángulo_59520" data-name="Rectángulo 59520" width="129.5" height="165.489" fill="#f24dc3"/>
    </clipPath>
  </defs>
  <g id="Grupo_196522" data-name="Grupo 196522" transform="translate(-475 -3609)">
    <g id="Grupo_196520" data-name="Grupo 196520" transform="translate(475 3609)">
      <g id="Grupo_196519" data-name="Grupo 196519" transform="translate(0 0)" clip-path="url(#clip-path)">
        <path id="Trazado_205784" data-name="Trazado 205784" d="M64.753,165.49a3.291,3.291,0,0,1-1.662-.451l-35.816-20.8C9.786,134.068-.651,114.665.032,93.6L2.389,21.251A3.315,3.315,0,0,1,5.7,18.046H34.448L63.019.49a3.309,3.309,0,0,1,3.466,0L95.057,18.046H123.8a3.315,3.315,0,0,1,3.31,3.205l2.357,72.341c.687,21.073-9.75,40.476-27.239,50.639L66.414,165.039a3.3,3.3,0,0,1-1.662.451M8.9,24.667,6.649,93.811c-.607,18.631,8.573,35.757,23.953,44.7l34.15,19.842L98.9,138.509c15.38-8.94,24.561-26.066,23.949-44.7L120.6,24.667H94.121a3.314,3.314,0,0,1-1.733-.489L64.753,7.2,37.113,24.178a3.288,3.288,0,0,1-1.729.489Z" transform="translate(0.002 -0.001)" fill="#f24dc3"/>
        <path id="Trazado_205785" data-name="Trazado 205785" d="M52.93,132.81a3.313,3.313,0,0,1-1.666-.447L23.237,116.081C10.687,108.785,3.2,94.708,3.7,79.345L5.567,21.992a3.31,3.31,0,0,1,3.306-3.2H27.8L51.256,5.039a3.325,3.325,0,0,1,3.348,0L78.047,18.791H96.978a3.311,3.311,0,0,1,3.31,3.2l1.868,57.353c.5,15.363-6.992,29.44-19.538,36.731L54.591,132.363a3.3,3.3,0,0,1-1.662.447M12.078,25.412,10.311,79.56c-.417,12.926,5.811,24.729,16.253,30.8L52.93,125.67l26.361-15.317C89.733,104.285,95.957,92.486,95.54,79.56L93.777,25.412H77.149a3.307,3.307,0,0,1-1.674-.455L52.93,11.732,30.376,24.957a3.284,3.284,0,0,1-1.674.455Z" transform="translate(11.824 14.756)" fill="#f24dc3"/>
        <path id="Trazado_205786" data-name="Trazado 205786" d="M29.851,49.228a4.2,4.2,0,0,1-2.927-1.189L11.1,32.63a4.192,4.192,0,1,1,5.849-6.005l12.71,12.382,18.661-20.6a4.192,4.192,0,0,1,6.216,5.626L32.96,47.849a4.213,4.213,0,0,1-2.977,1.379h-.131" transform="translate(31.639 54.796)" fill="#f24dc3"/>
      </g>
    </g>
  </g>
</svg>
