<svg xmlns="http://www.w3.org/2000/svg" xmlns:xlink="http://www.w3.org/1999/xlink" width="129.5" height="165.489" viewBox="0 0 129.5 165.489">
  <defs>
    <clipPath id="clip-path">
      <rect id="Rectángulo_59518" data-name="Rectángulo 59518" width="129.5" height="165.489" fill="#f24dc3"/>
    </clipPath>
  </defs>
  <g id="Grupo_196524" data-name="Grupo 196524" transform="translate(-470.5 -4117.609)">
    <g id="Grupo_196516" data-name="Grupo 196516" transform="translate(470.5 4117.609)">
      <g id="Grupo_196515" data-name="Grupo 196515" transform="translate(0 0)" clip-path="url(#clip-path)">
        <path id="Trazado_205766" data-name="Trazado 205766" d="M64.753,165.49a3.291,3.291,0,0,1-1.662-.451l-35.816-20.8C9.786,134.068-.651,114.665.032,93.6L2.389,21.251A3.315,3.315,0,0,1,5.7,18.046H34.448L63.019.49a3.309,3.309,0,0,1,3.466,0L95.057,18.046H123.8a3.315,3.315,0,0,1,3.31,3.205l2.357,72.341c.687,21.073-9.75,40.476-27.239,50.639L66.414,165.039a3.3,3.3,0,0,1-1.662.451M8.9,24.667,6.649,93.811c-.607,18.631,8.573,35.757,23.953,44.7l34.15,19.842L98.9,138.509c15.38-8.94,24.561-26.066,23.949-44.7L120.6,24.667H94.121a3.314,3.314,0,0,1-1.733-.489L64.753,7.2,37.113,24.178a3.288,3.288,0,0,1-1.729.489Z" transform="translate(0.002 -0.001)" fill="#f24dc3"/>
        <path id="Trazado_205767" data-name="Trazado 205767" d="M52.93,132.81a3.313,3.313,0,0,1-1.666-.447L23.237,116.081C10.687,108.785,3.2,94.708,3.7,79.345L5.567,21.992a3.31,3.31,0,0,1,3.306-3.2H27.8L51.256,5.039a3.325,3.325,0,0,1,3.348,0L78.047,18.791H96.978a3.311,3.311,0,0,1,3.31,3.2l1.868,57.353c.5,15.363-6.992,29.44-19.538,36.731L54.591,132.363a3.3,3.3,0,0,1-1.662.447M12.078,25.412,10.311,79.56c-.417,12.926,5.811,24.729,16.253,30.8L52.93,125.67l26.361-15.317C89.733,104.285,95.957,92.486,95.54,79.56L93.777,25.412H77.149a3.307,3.307,0,0,1-1.674-.455L52.93,11.732,30.376,24.957a3.284,3.284,0,0,1-1.674.455Z" transform="translate(11.824 14.756)" fill="#f24dc3"/>
        <path id="Trazado_205768" data-name="Trazado 205768" d="M44.4,47.21a3.311,3.311,0,0,1-3.31-3.31V28.853a11.734,11.734,0,1,0-23.468,0V43.9A3.31,3.31,0,1,1,11,43.9V28.853a18.355,18.355,0,0,1,36.71,0V43.9a3.313,3.313,0,0,1-3.31,3.31" transform="translate(35.395 33.78)" fill="#f24dc3"/>
        <path id="Trazado_205769" data-name="Trazado 205769" d="M36.716,62.11a3.29,3.29,0,0,1-1.312-.27l-24.653-10.7A3.308,3.308,0,0,1,8.756,48.1V21.279a3.313,3.313,0,0,1,3.31-3.31H61.095a3.307,3.307,0,0,1,3.306,3.31V48.117a3.306,3.306,0,0,1-1.982,3.032L38.044,61.832a3.237,3.237,0,0,1-1.328.278M15.377,45.933l21.335,9.257,21.073-9.236V24.59H15.377Z" transform="translate(28.169 57.808)" fill="#f24dc3"/>
        <path id="Trazado_205770" data-name="Trazado 205770" d="M17.879,30.8a3.313,3.313,0,0,1-3.31-3.31V25.055a3.31,3.31,0,0,1,6.621,0v2.433a3.311,3.311,0,0,1-3.31,3.31" transform="translate(46.871 69.956)" fill="#f24dc3"/>
      </g>
    </g>
  </g>
</svg>
