<svg xmlns="http://www.w3.org/2000/svg" xmlns:xlink="http://www.w3.org/1999/xlink" width="715" height="622.604" viewBox="0 0 715 622.604">
  <defs>
    <clipPath id="clip-path">
      <rect id="Rectángulo_37465" data-name="Rectángulo 37465" width="610" height="507.477" fill="none"/>
    </clipPath>
    <clipPath id="clip-path-5">
      <rect id="Rectángulo_37449" data-name="Rectángulo 37449" width="349.323" height="288.969" fill="none"/>
    </clipPath>
    <clipPath id="clip-path-6">
      <rect id="Rectángulo_37450" data-name="Rectángulo 37450" width="9.335" height="9.334" fill="none"/>
    </clipPath>
    <clipPath id="clip-path-7">
      <rect id="Rectángulo_37451" data-name="Rectángulo 37451" width="9.333" height="9.334" fill="none"/>
    </clipPath>
    <clipPath id="clip-path-9">
      <rect id="Rectángulo_37453" data-name="Rectángulo 37453" width="9.334" height="9.333" fill="none"/>
    </clipPath>
    <clipPath id="clip-path-12">
      <rect id="Rectángulo_37456" data-name="Rectángulo 37456" width="65.259" height="65.372" fill="none"/>
    </clipPath>
    <clipPath id="clip-path-13">
      <rect id="Rectángulo_37457" data-name="Rectángulo 37457" width="15.383" height="15.383" fill="none"/>
    </clipPath>
    <clipPath id="clip-path-14">
      <rect id="Rectángulo_37458" data-name="Rectángulo 37458" width="39.694" height="60.181" fill="none"/>
    </clipPath>
    <clipPath id="clip-path-15">
      <rect id="Rectángulo_37459" data-name="Rectángulo 37459" width="49.545" height="77.353" fill="none"/>
    </clipPath>
    <clipPath id="clip-path-16">
      <rect id="Rectángulo_37460" data-name="Rectángulo 37460" width="70.794" height="97.616" fill="none"/>
    </clipPath>
    <clipPath id="clip-path-17">
      <rect id="Rectángulo_37461" data-name="Rectángulo 37461" width="103.232" height="97.616" fill="none"/>
    </clipPath>
    <clipPath id="clip-path-18">
      <rect id="Rectángulo_37462" data-name="Rectángulo 37462" width="54.691" height="82.918" fill="none"/>
    </clipPath>
    <clipPath id="clip-path-19">
      <rect id="Rectángulo_37463" data-name="Rectángulo 37463" width="76.72" height="94.262" fill="none"/>
    </clipPath>
  </defs>
  <g id="Grupo_196521" data-name="Grupo 196521" transform="translate(6123 10178.396)">
    <text id="Tipos_de_Información" data-name="Tipos de Información" transform="translate(-5723 -10178.396)" fill="#12263f" font-size="20" font-family="Roboto-Black, Roboto" font-weight="800"><tspan x="-96.274" y="21">Tipos de Información</tspan></text>
    <g id="Grupo_196488" data-name="Grupo 196488" transform="translate(-6123 -10116.799)">
      <g id="Grupo_151515" data-name="Grupo 151515" clip-path="url(#clip-path)">
        <g id="Grupo_151465" data-name="Grupo 151465">
          <g id="Grupo_151464" data-name="Grupo 151464" clip-path="url(#clip-path)">
            <path id="Trazado_183806" data-name="Trazado 183806" d="M341.087,172.915a7.638,7.638,0,0,1-6.265-6.5.423.423,0,0,0-.827-.112,13.767,13.767,0,0,1-2.6,4.957,6.241,6.241,0,0,1-2.257,1.573,10.9,10.9,0,0,1-2.586.431.084.084,0,0,0-.02.152c.07.034.142.06.214.087a1.371,1.371,0,0,0-.307.184.3.3,0,0,0-.048.37c.477.695,1.319.7,2.064.988a8.44,8.44,0,0,1,2.268,1.333,7.526,7.526,0,0,1,2.779,4.405.653.653,0,0,0,1.251,0,7.571,7.571,0,0,1,6.336-6.356.788.788,0,0,0,0-1.509" transform="translate(98.88 50.296)" fill="#e9f0ff"/>
            <path id="Trazado_183807" data-name="Trazado 183807" d="M343.158,311.066a9,9,0,0,1-2.985-1.1,8.824,8.824,0,0,1,1.607-3.453.5.5,0,0,0-.592-.778,23.115,23.115,0,0,1-3.888,1.56,8.84,8.84,0,0,1-1.475-3.839.5.5,0,0,0-.968-.132,21.573,21.573,0,0,1-1.846,4.183,6.939,6.939,0,0,1-1.25-.39,12.7,12.7,0,0,1-2.5-1.784c-.068-.049-.168.035-.142.109a2.65,2.65,0,0,0,.1.25,1.59,1.59,0,0,0-.407-.1.359.359,0,0,0-.347.267c-.178.969.516,1.667.893,2.525a9.878,9.878,0,0,1,.657,2.166,7.08,7.08,0,0,1-.852.42,12.655,12.655,0,0,1-3.027.5.1.1,0,0,0-.023.179c.081.04.165.07.25.1a1.57,1.57,0,0,0-.361.215.356.356,0,0,0-.056.433c.559.813,1.543.814,2.417,1.156a9.788,9.788,0,0,1,1.637.837,7.2,7.2,0,0,1-1.213,2.916c-.439.593.443,1.465,1.036,1.036a9.169,9.169,0,0,1,2.941-1.409,7.466,7.466,0,0,1,1.506,3.337.766.766,0,0,0,1.466,0,9.118,9.118,0,0,1,1.3-3.444,8.854,8.854,0,0,1,3.289,1.5c.721.528,1.753-.529,1.248-1.248a9.027,9.027,0,0,1-1.415-3.212,8.865,8.865,0,0,1,2.992-1.035.923.923,0,0,0,0-1.767" transform="translate(98.746 91.797)" fill="#e9f0ff"/>
            <path id="Trazado_183808" data-name="Trazado 183808" d="M348.087,6.915a7.638,7.638,0,0,1-6.265-6.5A.423.423,0,0,0,340.995.3a13.767,13.767,0,0,1-2.6,4.957,6.241,6.241,0,0,1-2.257,1.573,10.9,10.9,0,0,1-2.586.431.084.084,0,0,0-.02.152c.07.034.142.06.214.087a1.37,1.37,0,0,0-.307.184.3.3,0,0,0-.048.37c.477.694,1.319.7,2.064.988a8.44,8.44,0,0,1,2.268,1.333A7.525,7.525,0,0,1,340.5,14.78a.653.653,0,0,0,1.251,0,7.571,7.571,0,0,1,6.336-6.356.788.788,0,0,0,0-1.509" transform="translate(101 0)" fill="#e9f0ff"/>
            <path id="Trazado_183809" data-name="Trazado 183809" d="M342.158,74.066a9,9,0,0,1-2.985-1.1,8.824,8.824,0,0,1,1.607-3.453.5.5,0,0,0-.592-.778,23.12,23.12,0,0,1-3.888,1.56,8.839,8.839,0,0,1-1.475-3.839.5.5,0,0,0-.968-.132,21.572,21.572,0,0,1-1.846,4.183,6.943,6.943,0,0,1-1.25-.39,12.7,12.7,0,0,1-2.5-1.784c-.068-.05-.168.035-.142.109a2.65,2.65,0,0,0,.1.25,1.59,1.59,0,0,0-.407-.1.359.359,0,0,0-.347.267c-.179.969.516,1.667.893,2.525a9.881,9.881,0,0,1,.657,2.166,7.087,7.087,0,0,1-.852.42,12.657,12.657,0,0,1-3.027.5.1.1,0,0,0-.023.178c.081.04.165.07.25.1a1.571,1.571,0,0,0-.361.215.357.357,0,0,0-.056.433c.559.813,1.543.814,2.417,1.156a9.787,9.787,0,0,1,1.637.837,7.189,7.189,0,0,1-1.213,2.916c-.439.593.443,1.465,1.036,1.036a9.168,9.168,0,0,1,2.941-1.409,7.459,7.459,0,0,1,1.506,3.337.766.766,0,0,0,1.466,0,9.117,9.117,0,0,1,1.3-3.444,8.853,8.853,0,0,1,3.289,1.5c.721.528,1.753-.529,1.248-1.248a9.026,9.026,0,0,1-1.415-3.212,8.865,8.865,0,0,1,2.992-1.035.923.923,0,0,0,0-1.767" transform="translate(98.443 19.989)" fill="#e9f0ff"/>
            <path id="Trazado_183810" data-name="Trazado 183810" d="M569.3,202.852h-2.288a.572.572,0,0,1,0-1.144H569.3a.572.572,0,0,1,0,1.144m-6.865,0h-2.288a.572.572,0,0,1,0-1.144h2.288a.572.572,0,0,1,0,1.144m-6.864,0h-2.288a.572.572,0,0,1,0-1.144h2.288a.572.572,0,1,1,0,1.144m-6.863,0h-2.288a.572.572,0,1,1,0-1.144H548.7a.572.572,0,0,1,0,1.144m-6.864,0H539.55a.572.572,0,0,1,0-1.144h2.288a.572.572,0,1,1,0,1.144m-6.863,0h-2.288a.572.572,0,0,1,0-1.144h2.288a.572.572,0,0,1,0,1.144m-6.864,0h-2.288a.572.572,0,0,1,0-1.144h2.288a.572.572,0,0,1,0,1.144m-6.864,0h-2.287a.572.572,0,1,1,0-1.144h2.287a.572.572,0,1,1,0,1.144m-6.863,0H512.1a.572.572,0,0,1,0-1.144h2.288a.572.572,0,0,1,0,1.144m-6.864,0h-2.289a.572.572,0,0,1,0-1.144h2.289a.572.572,0,0,1,0,1.144m-6.864,0h-2.288a.572.572,0,1,1,0-1.144h2.288a.572.572,0,0,1,0,1.144m-6.864,0H491.5a.572.572,0,0,1,0-1.144h2.288a.572.572,0,1,1,0,1.144m-6.863,0h-2.288a.572.572,0,1,1,0-1.144h2.288a.572.572,0,0,1,0,1.144m-6.864,0h-2.288a.572.572,0,0,1,0-1.144h2.288a.572.572,0,0,1,0,1.144m-6.864,0h-2.287a.572.572,0,0,1,0-1.144H473.2a.572.572,0,1,1,0,1.144m-6.863,0H464.05a.572.572,0,0,1,0-1.144h2.288a.572.572,0,1,1,0,1.144m-6.864,0h-2.288a.572.572,0,0,1,0-1.144h2.288a.572.572,0,1,1,0,1.144m-6.863,0h-2.288a.572.572,0,1,1,0-1.144h2.288a.572.572,0,0,1,0,1.144m-6.865,0h-2.288a.572.572,0,0,1,0-1.144h2.288a.572.572,0,0,1,0,1.144m-6.863,0h-2.288a.572.572,0,1,1,0-1.144h2.288a.572.572,0,0,1,0,1.144m-6.864,0H429.73a.572.572,0,0,1,0-1.144h2.288a.572.572,0,0,1,0,1.144m-6.864,0h-2.287a.572.572,0,0,1,0-1.144h2.287a.572.572,0,0,1,0,1.144m-6.863,0H416a.572.572,0,1,1,0-1.144h2.288a.572.572,0,0,1,0,1.144m-6.864,0h-2.288a.572.572,0,0,1,0-1.144h2.288a.572.572,0,1,1,0,1.144m-6.863,0h-2.288a.572.572,0,0,1,0-1.144h2.288a.572.572,0,0,1,0,1.144m-6.864,0h-2.288a.572.572,0,0,1,0-1.144H397.7a.572.572,0,0,1,0,1.144m-6.864,0h-2.288a.572.572,0,0,1,0-1.144h2.288a.572.572,0,0,1,0,1.144m-6.864,0h-2.287a.572.572,0,0,1,0-1.144h2.287a.572.572,0,0,1,0,1.144m-6.863,0h-2.288a.572.572,0,0,1,0-1.144h2.288a.572.572,0,0,1,0,1.144m-6.864,0h-2.288a.572.572,0,0,1,0-1.144h2.288a.572.572,0,0,1,0,1.144m-6.864,0h-2.288a.572.572,0,1,1,0-1.144h2.288a.572.572,0,0,1,0,1.144m-6.863,0H354.23a.572.572,0,0,1,0-1.144h2.288a.572.572,0,0,1,0,1.144m-6.864,0h-2.288a.572.572,0,0,1,0-1.144h2.288a.572.572,0,0,1,0,1.144m-6.863,0H340.5a.572.572,0,1,1,0-1.144h2.288a.572.572,0,0,1,0,1.144m-6.864,0h-2.288a.572.572,0,1,1,0-1.144h2.288a.572.572,0,1,1,0,1.144m-6.864,0h-2.288a.572.572,0,0,1,0-1.144h2.288a.572.572,0,0,1,0,1.144m-6.864,0h-2.288a.572.572,0,0,1,0-1.144H322.2a.572.572,0,0,1,0,1.144m-6.863,0h-2.288a.572.572,0,0,1,0-1.144h2.288a.572.572,0,1,1,0,1.144m-6.864,0h-2.288a.572.572,0,0,1,0-1.144h2.288a.572.572,0,0,1,0,1.144m-6.863,0h-2.289a.572.572,0,0,1,0-1.144h2.289a.572.572,0,0,1,0,1.144m-6.865,0h-2.287a.572.572,0,0,1,0-1.144h2.287a.572.572,0,0,1,0,1.144m-6.863,0h-2.288a.572.572,0,0,1,0-1.144h2.288a.572.572,0,0,1,0,1.144m-6.864,0h-2.288a.572.572,0,0,1,0-1.144h2.288a.572.572,0,0,1,0,1.144m-6.863,0h-2.288a.572.572,0,0,1,0-1.144h2.288a.572.572,0,0,1,0,1.144m-6.864,0H265a.572.572,0,0,1,0-1.144h2.288a.572.572,0,0,1,0,1.144m-6.864,0h-2.288a.572.572,0,0,1,0-1.144h2.288a.572.572,0,0,1,0,1.144m-6.863,0h-2.288a.572.572,0,0,1,0-1.144h2.288a.572.572,0,0,1,0,1.144m-6.864,0H244.41a.572.572,0,0,1,0-1.144H246.7a.572.572,0,0,1,0,1.144m-6.864,0h-2.287a.572.572,0,0,1,0-1.144h2.287a.572.572,0,0,1,0,1.144m-6.863,0h-2.289a.572.572,0,0,1,0-1.144h2.289a.572.572,0,0,1,0,1.144m-6.864,0h-2.288a.572.572,0,1,1,0-1.144h2.288a.572.572,0,0,1,0,1.144m-6.864,0h-2.288a.572.572,0,0,1,0-1.144h2.288a.572.572,0,1,1,0,1.144m-6.863,0h-2.288a.572.572,0,0,1,0-1.144h2.288a.572.572,0,0,1,0,1.144m-6.864,0h-2.288a.572.572,0,0,1,0-1.144h2.288a.572.572,0,0,1,0,1.144m-6.864,0h-2.288a.572.572,0,0,1,0-1.144h2.288a.572.572,0,0,1,0,1.144m-6.864,0H189.5a.572.572,0,1,1,0-1.144h2.287a.572.572,0,1,1,0,1.144m-6.863,0h-2.288a.572.572,0,0,1,0-1.144h2.288a.572.572,0,1,1,0,1.144m-6.864,0h-2.288a.572.572,0,0,1,0-1.144h2.288a.572.572,0,0,1,0,1.144m-6.863,0H168.91a.572.572,0,0,1,0-1.144H171.2a.572.572,0,0,1,0,1.144m-6.864,0h-2.288a.572.572,0,0,1,0-1.144h2.288a.572.572,0,0,1,0,1.144m-6.864,0h-2.288a.572.572,0,0,1,0-1.144h2.288a.572.572,0,0,1,0,1.144m-6.864,0h-2.287a.572.572,0,0,1,0-1.144h2.287a.572.572,0,0,1,0,1.144m-6.863,0h-2.288a.572.572,0,1,1,0-1.144h2.288a.572.572,0,0,1,0,1.144m-6.864,0H134.59a.572.572,0,1,1,0-1.144h2.288a.572.572,0,1,1,0,1.144m-6.864,0h-2.288a.572.572,0,1,1,0-1.144h2.288a.572.572,0,1,1,0,1.144m-6.863,0h-2.288a.572.572,0,0,1,0-1.144h2.288a.572.572,0,0,1,0,1.144m-6.864,0H114a.572.572,0,0,1,0-1.144h2.288a.572.572,0,0,1,0,1.144" transform="translate(34.367 61.116)" fill="#1e3094"/>
            <path id="Trazado_183811" data-name="Trazado 183811" d="M520.783,443.956H518.5a.573.573,0,1,1,0-1.145h2.287a.573.573,0,1,1,0,1.145m-6.864,0h-2.288a.573.573,0,0,1,0-1.145h2.288a.573.573,0,0,1,0,1.145m-6.864,0h-2.288a.573.573,0,0,1,0-1.145h2.288a.573.573,0,1,1,0,1.145m-6.863,0H497.9a.573.573,0,0,1,0-1.145h2.288a.573.573,0,0,1,0,1.145m-6.864,0H491.04a.573.573,0,0,1,0-1.145h2.288a.573.573,0,1,1,0,1.145m-6.863,0h-2.288a.573.573,0,0,1,0-1.145h2.288a.573.573,0,0,1,0,1.145m-6.864,0h-2.288a.573.573,0,0,1,0-1.145H479.6a.573.573,0,0,1,0,1.145m-6.864,0H470.45a.573.573,0,0,1,0-1.145h2.287a.573.573,0,1,1,0,1.145m-6.863,0h-2.288a.573.573,0,0,1,0-1.145h2.288a.573.573,0,0,1,0,1.145m-6.864,0h-2.288a.573.573,0,0,1,0-1.145h2.288a.573.573,0,0,1,0,1.145m-6.864,0h-2.288a.573.573,0,1,1,0-1.145h2.288a.573.573,0,0,1,0,1.145m-6.864,0h-2.288a.573.573,0,0,1,0-1.145h2.288a.573.573,0,1,1,0,1.145m-6.863,0H436.13a.573.573,0,1,1,0-1.145h2.288a.573.573,0,0,1,0,1.145m-6.864,0h-2.288a.573.573,0,0,1,0-1.145h2.288a.573.573,0,0,1,0,1.145m-6.864,0H422.4a.573.573,0,0,1,0-1.145h2.288a.573.573,0,1,1,0,1.145m-6.863,0h-2.288a.573.573,0,1,1,0-1.145h2.288a.573.573,0,0,1,0,1.145m-6.864,0h-2.288a.573.573,0,0,1,0-1.145h2.288a.573.573,0,1,1,0,1.145m-6.863,0h-2.288a.573.573,0,1,1,0-1.145H404.1a.573.573,0,0,1,0,1.145m-6.864,0h-2.288a.573.573,0,0,1,0-1.145h2.288a.573.573,0,0,1,0,1.145m-6.864,0h-2.287a.573.573,0,1,1,0-1.145h2.287a.573.573,0,1,1,0,1.145m-6.864,0H381.22a.573.573,0,0,1,0-1.145h2.288a.573.573,0,0,1,0,1.145m-6.864,0h-2.287a.573.573,0,0,1,0-1.145h2.287a.573.573,0,0,1,0,1.145m-6.863,0h-2.288a.573.573,0,0,1,0-1.145h2.288a.573.573,0,0,1,0,1.145m-6.864,0h-2.288a.573.573,0,0,1,0-1.145h2.288a.573.573,0,0,1,0,1.145m-6.863,0h-2.288a.573.573,0,0,1,0-1.145h2.288a.573.573,0,0,1,0,1.145m-6.864,0-2.3-.007a.572.572,0,0,1,.009-1.144h.009l2.279,0a.573.573,0,0,1,0,1.145m-6.852-.254-.056,0q-1.155-.111-2.295-.271a.572.572,0,1,1,.158-1.132q1.116.154,2.248.264a.572.572,0,0,1-.055,1.141m-6.77-1.083a.608.608,0,0,1-.126-.014q-1.13-.256-2.244-.558a.574.574,0,0,1-.4-.7.58.58,0,0,1,.7-.4c.726.2,1.458.379,2.2.545a.573.573,0,0,1-.125,1.132m-6.581-1.932a.574.574,0,0,1-.2-.035q-1.091-.4-2.159-.839a.572.572,0,0,1-.311-.747.566.566,0,0,1,.747-.309q1.048.43,2.116.82a.572.572,0,0,1-.2,1.11m-6.29-2.752a.58.58,0,0,1-.262-.064q-1.03-.532-2.035-1.106a.571.571,0,1,1,.568-.992c.655.375,1.32.734,1.992,1.08a.573.573,0,0,1-.263,1.081m-5.889-3.521a.574.574,0,0,1-.323-.1q-.954-.657-1.878-1.349a.572.572,0,1,1,.685-.916q.9.68,1.84,1.323a.572.572,0,0,1-.324,1.044m-5.4-4.232a.574.574,0,0,1-.38-.145q-.862-.77-1.693-1.574a.572.572,0,0,1,.8-.822q.811.79,1.657,1.543a.571.571,0,0,1-.38,1m-4.828-4.871a.578.578,0,0,1-.431-.2q-.758-.872-1.483-1.771a.572.572,0,1,1,.893-.715q.708.882,1.452,1.733a.572.572,0,0,1-.43.949m-4.179-5.435a.573.573,0,0,1-.476-.253q-.645-.956-1.248-1.941a.572.572,0,1,1,.975-.6q.592.966,1.223,1.9a.571.571,0,0,1-.156.794.563.563,0,0,1-.318.1m-3.465-5.913a.571.571,0,0,1-.511-.315q-.518-1.026-.994-2.081a.572.572,0,1,1,1.042-.47q.465,1.028.973,2.037a.571.571,0,0,1-.254.767.549.549,0,0,1-.257.063m-2.691-6.3a.573.573,0,0,1-.539-.382q-.385-1.087-.724-2.194a.572.572,0,1,1,1.093-.336q.332,1.085.71,2.149a.574.574,0,0,1-.349.731.6.6,0,0,1-.19.033m-1.875-6.594a.574.574,0,0,1-.559-.452q-.242-1.126-.442-2.267a.572.572,0,1,1,1.127-.2q.2,1.118.433,2.22a.571.571,0,0,1-.438.68.549.549,0,0,1-.121.014m-1.025-6.778a.573.573,0,0,1-.569-.524q-.1-1.145-.154-2.3a.571.571,0,0,1,.545-.6.581.581,0,0,1,.6.545q.053,1.136.151,2.258a.574.574,0,0,1-.521.62l-.05,0m-.21-6.859a.571.571,0,0,1-.572-.572v-2.288a.572.572,0,1,1,1.144,0v2.288a.571.571,0,0,1-.572.572m0-6.864a.572.572,0,0,1-.572-.572v-2.288a.572.572,0,0,1,1.144,0V380a.572.572,0,0,1-.572.572m0-6.863a.573.573,0,0,1-.572-.573v-2.288a.572.572,0,0,1,1.144,0v2.288a.573.573,0,0,1-.572.573m0-6.864a.572.572,0,0,1-.572-.572v-2.288a.572.572,0,1,1,1.144,0v2.288a.572.572,0,0,1-.572.572m0-6.863a.573.573,0,0,1-.572-.573v-2.288a.572.572,0,0,1,1.144,0v2.288a.573.573,0,0,1-.572.573m0-6.864a.572.572,0,0,1-.572-.572v-2.288a.572.572,0,1,1,1.144,0v2.288a.572.572,0,0,1-.572.572m0-6.864a.572.572,0,0,1-.572-.572V343.39a.572.572,0,0,1,1.144,0v2.288a.572.572,0,0,1-.572.572m0-6.863a.572.572,0,0,1-.572-.573v-2.287a.572.572,0,0,1,1.144,0v2.287a.572.572,0,0,1-.572.573m0-6.864a.572.572,0,0,1-.572-.572v-2.288a.572.572,0,0,1,1.144,0v2.288a.572.572,0,0,1-.572.572m0-6.863a.573.573,0,0,1-.572-.573V322.8a.572.572,0,0,1,1.144,0v2.288a.573.573,0,0,1-.572.573m0-6.865a.572.572,0,0,1-.572-.572v-2.288a.572.572,0,1,1,1.144,0v2.288a.572.572,0,0,1-.572.572m0-6.863a.573.573,0,0,1-.572-.573v-2.288a.572.572,0,0,1,1.144,0v2.288a.573.573,0,0,1-.572.573m0-6.864a.572.572,0,0,1-.572-.572v-2.288a.572.572,0,1,1,1.144,0V304.5a.572.572,0,0,1-.572.572m0-6.864a.572.572,0,0,1-.572-.572v-2.288a.572.572,0,0,1,1.144,0v2.288a.572.572,0,0,1-.572.572m0-6.863a.572.572,0,0,1-.572-.573v-2.287a.572.572,0,1,1,1.144,0v2.287a.572.572,0,0,1-.572.573m0-6.864a.572.572,0,0,1-.572-.572v-2.288a.572.572,0,0,1,1.144,0V283.9a.572.572,0,0,1-.572.572m0-6.863a.573.573,0,0,1-.572-.573v-2.288a.572.572,0,0,1,1.144,0v2.288a.573.573,0,0,1-.572.573m0-6.864a.572.572,0,0,1-.572-.572v-2.289a.572.572,0,1,1,1.144,0v2.289a.572.572,0,0,1-.572.572m0-6.864a.572.572,0,0,1-.572-.572v-2.288a.572.572,0,0,1,1.144,0v2.288a.572.572,0,0,1-.572.572m0-6.864a.572.572,0,0,1-.572-.572v-2.288a.572.572,0,0,1,1.144,0v2.288a.572.572,0,0,1-.572.572m0-6.864a.571.571,0,0,1-.572-.572V247.3a.572.572,0,0,1,1.144,0v2.287a.571.571,0,0,1-.572.572m0-6.863a.572.572,0,0,1-.572-.572v-2.288a.572.572,0,0,1,1.144,0v2.288a.572.572,0,0,1-.572.572m0-6.864a.572.572,0,0,1-.572-.572V233.57a.572.572,0,0,1,1.144,0v2.288a.572.572,0,0,1-.572.572m0-6.864a.571.571,0,0,1-.572-.572v-2.288a.572.572,0,0,1,1.144,0v2.288a.571.571,0,0,1-.572.572m0-6.863a.572.572,0,0,1-.572-.572v-2.288a.572.572,0,0,1,1.144,0v2.288a.572.572,0,0,1-.572.572m0-6.864a.572.572,0,0,1-.572-.572v-2.288a.572.572,0,0,1,1.144,0v2.288a.572.572,0,0,1-.572.572m0-6.864a.571.571,0,0,1-.572-.572v-2.287a.572.572,0,0,1,1.144,0V208.4a.571.571,0,0,1-.572.572m0-6.864a.571.571,0,0,1-.572-.572v-2.287a.572.572,0,0,1,1.144,0v2.287a.571.571,0,0,1-.572.572m0-6.863a.572.572,0,0,1-.572-.572v-2.288a.572.572,0,0,1,1.144,0v2.288a.572.572,0,0,1-.572.572m0-6.864a.571.571,0,0,1-.572-.572v-2.288a.572.572,0,0,1,1.144,0v2.288a.571.571,0,0,1-.572.572m0-6.863a.572.572,0,0,1-.572-.572v-2.288a.572.572,0,0,1,1.144,0v2.288a.572.572,0,0,1-.572.572m0-6.864a.571.571,0,0,1-.572-.572V171.8a.572.572,0,0,1,1.144,0v2.288a.571.571,0,0,1-.572.572m0-6.864a.571.571,0,0,1-.572-.572v-2.288a.572.572,0,0,1,1.144,0v2.288a.571.571,0,0,1-.572.572m0-6.864a.571.571,0,0,1-.572-.572V158.07a.572.572,0,0,1,1.144,0v2.287a.571.571,0,0,1-.572.572m0-6.863a.571.571,0,0,1-.572-.572v-2.288a.572.572,0,0,1,1.144,0v2.288a.571.571,0,0,1-.572.572m0-6.864a.571.571,0,0,1-.572-.572v-2.288a.572.572,0,0,1,1.144,0v2.288a.571.571,0,0,1-.572.572m0-6.864a.571.571,0,0,1-.572-.572v-2.288a.572.572,0,0,1,1.144,0v2.288a.571.571,0,0,1-.572.572m0-6.863a.572.572,0,0,1-.572-.572v-2.288a.572.572,0,0,1,1.144,0V132.9a.572.572,0,0,1-.572.572m0-6.864a.571.571,0,0,1-.572-.572V123.75a.572.572,0,0,1,1.144,0v2.288a.571.571,0,0,1-.572.572m0-6.863a.572.572,0,0,1-.572-.573v-2.287a.572.572,0,0,1,1.144,0v2.287a.572.572,0,0,1-.572.573m0-6.864a.571.571,0,0,1-.572-.572v-2.288a.572.572,0,0,1,1.144,0v2.288a.571.571,0,0,1-.572.572m.013-6.864h-.012a.571.571,0,0,1-.56-.584q.023-1.161.1-2.309a.572.572,0,1,1,1.141.072c-.048.751-.078,1.5-.1,2.262a.573.573,0,0,1-.572.559m.573-6.832a.635.635,0,0,1-.085-.007.572.572,0,0,1-.482-.649q.168-1.147.384-2.279a.572.572,0,1,1,1.123.214q-.209,1.108-.377,2.232a.57.57,0,0,1-.564.489m1.427-6.708a.572.572,0,0,1-.551-.726q.313-1.116.67-2.211a.572.572,0,1,1,1.088.353c-.232.717-.452,1.438-.655,2.166a.573.573,0,0,1-.551.418m2.265-6.475a.586.586,0,0,1-.223-.044.572.572,0,0,1-.3-.749q.451-1.069.946-2.115a.572.572,0,0,1,1.033.49q-.483,1.022-.926,2.069a.569.569,0,0,1-.526.349m3.067-6.14a.573.573,0,0,1-.494-.86q.582-1,1.205-1.975a.572.572,0,1,1,.963.616q-.608.954-1.179,1.934a.569.569,0,0,1-.5.285m3.815-5.7a.571.571,0,0,1-.453-.919q.7-.921,1.441-1.809a.572.572,0,0,1,.88.732q-.725.87-1.412,1.771a.57.57,0,0,1-.455.224m4.5-5.179a.572.572,0,0,1-.408-.973q.811-.823,1.655-1.612a.572.572,0,1,1,.782.835Q310,68,309.2,68.811a.573.573,0,0,1-.408.171m5.108-4.576a.571.571,0,0,1-.354-1.02q.907-.715,1.842-1.392a.572.572,0,0,1,.67.926q-.915.663-1.8,1.363a.562.562,0,0,1-.353.122m5.638-3.9a.572.572,0,0,1-.3-1.062q.987-.6,2-1.151a.573.573,0,0,1,.55,1q-.993.543-1.96,1.126a.578.578,0,0,1-.294.082m6.08-3.161a.572.572,0,0,1-.232-1.095q1.053-.465,2.128-.887a.572.572,0,0,1,.418,1.065q-1.053.414-2.083.869a.56.56,0,0,1-.231.048m6.428-2.366a.571.571,0,0,1-.163-1.119c.737-.219,1.48-.425,2.229-.612a.572.572,0,0,1,.279,1.109q-1.1.278-2.183.6a.535.535,0,0,1-.163.023m6.683-1.535a.572.572,0,0,1-.092-1.136q1.136-.188,2.288-.326a.572.572,0,1,1,.137,1.135q-1.126.137-2.24.319a.567.567,0,0,1-.093.008m6.822-.684a.572.572,0,0,1-.021-1.143q1.038-.039,2.085-.039h.223a.572.572,0,1,1,0,1.144h-.223q-1.024,0-2.043.038h-.021m173.88-.038h-2.288a.572.572,0,0,1,0-1.144h2.288a.572.572,0,1,1,0,1.144m-6.863,0h-2.288a.572.572,0,1,1,0-1.144h2.288a.572.572,0,0,1,0,1.144m-6.864,0h-2.288a.572.572,0,1,1,0-1.144H505.7a.572.572,0,1,1,0,1.144m-6.863,0h-2.288a.572.572,0,1,1,0-1.144h2.288a.572.572,0,1,1,0,1.144m-6.864,0H489.69a.572.572,0,1,1,0-1.144h2.288a.572.572,0,0,1,0,1.144m-6.864,0h-2.287a.572.572,0,1,1,0-1.144h2.287a.572.572,0,1,1,0,1.144m-6.863,0h-2.288a.572.572,0,0,1,0-1.144h2.288a.572.572,0,1,1,0,1.144m-6.865,0H469.1a.572.572,0,0,1,0-1.144h2.288a.572.572,0,1,1,0,1.144m-6.863,0h-2.288a.572.572,0,1,1,0-1.144h2.288a.572.572,0,1,1,0,1.144m-6.864,0H455.37a.572.572,0,0,1,0-1.144h2.288a.572.572,0,1,1,0,1.144m-6.863,0h-2.288a.572.572,0,0,1,0-1.144H450.8a.572.572,0,1,1,0,1.144m-6.864,0h-2.288a.572.572,0,0,1,0-1.144h2.288a.572.572,0,0,1,0,1.144m-6.864,0H434.78a.572.572,0,1,1,0-1.144h2.287a.572.572,0,1,1,0,1.144m-6.863,0h-2.288a.572.572,0,1,1,0-1.144H430.2a.572.572,0,0,1,0,1.144m-6.864,0h-2.288a.572.572,0,1,1,0-1.144h2.288a.572.572,0,1,1,0,1.144m-6.863,0h-2.288a.572.572,0,1,1,0-1.144h2.288a.572.572,0,0,1,0,1.144m-6.864,0h-2.289a.572.572,0,0,1,0-1.144h2.289a.572.572,0,1,1,0,1.144m-6.864,0h-2.288a.572.572,0,1,1,0-1.144h2.288a.572.572,0,0,1,0,1.144m-6.864,0H393.6a.572.572,0,1,1,0-1.144h2.288a.572.572,0,1,1,0,1.144m-6.864,0h-2.288a.572.572,0,0,1,0-1.144h2.288a.572.572,0,1,1,0,1.144m-6.863,0H379.87a.572.572,0,1,1,0-1.144h2.288a.572.572,0,0,1,0,1.144m-6.864,0h-2.288a.572.572,0,1,1,0-1.144h2.288a.572.572,0,0,1,0,1.144m-6.863,0h-2.288a.572.572,0,1,1,0-1.144h2.288a.572.572,0,1,1,0,1.144m-6.864,0h-2.288a.572.572,0,1,1,0-1.144h2.288a.572.572,0,1,1,0,1.144m-6.864,0h-2.288a.572.572,0,1,1,0-1.144H354.7a.572.572,0,0,1,0,1.144" transform="translate(88.644 15.628)" fill="#1e3094"/>
            <path id="Trazado_183812" data-name="Trazado 183812" d="M491.5,111.885H362.588A12.378,12.378,0,0,1,350.21,99.507V26.762a12.378,12.378,0,0,1,12.378-12.378H491.5a12.378,12.378,0,0,1,12.378,12.378V99.507A12.378,12.378,0,0,1,491.5,111.885" transform="translate(106.11 4.358)" fill="#dde2ff"/>
            <path id="Trazado_183813" data-name="Trazado 183813" d="M377.072,49.4V96.572a4.7,4.7,0,0,0,4.7,4.705h74.259a4.7,4.7,0,0,0,4.7-4.705V49.4Z" transform="translate(114.249 14.968)" fill="#adbcef"/>
            <path id="Trazado_183814" data-name="Trazado 183814" d="M459.5,95.663a.662.662,0,0,1-.406-.139L418.8,64.374,378.5,95.523a.664.664,0,1,1-.812-1.052l40.705-31.463a.659.659,0,0,1,.812,0l40.7,31.463a.665.665,0,0,1-.405,1.191" transform="translate(114.357 19.049)" fill="#1e3094"/>
            <path id="Trazado_183815" data-name="Trazado 183815" d="M460.623,56.924,439.784,40.816,418.947,24.709,398.108,40.816,377.27,56.924h-.335L397.94,73.16,418.947,89.4,439.953,73.16l21.005-16.237Z" transform="translate(114.207 7.486)" fill="#1e3094"/>
            <path id="Trazado_183816" data-name="Trazado 183816" d="M388.322,32.646V63.128l6.821,5.273L415.5,84.133,435.849,68.4l6.821-5.273V32.646Z" transform="translate(117.658 9.891)" fill="#fff"/>
            <path id="Trazado_183817" data-name="Trazado 183817" d="M427.143,61.28,416.489,43.439a4.425,4.425,0,0,0-7.609,0L398.228,61.28a4.424,4.424,0,0,0,3.8,6.683h21.307a4.425,4.425,0,0,0,3.8-6.683M412.685,46.729a1.769,1.769,0,0,1,1.769,1.769v7.078a1.769,1.769,0,0,1-3.539,0V48.5a1.769,1.769,0,0,1,1.769-1.769m0,17.7a2.654,2.654,0,1,1,2.654-2.654,2.658,2.658,0,0,1-2.654,2.654" transform="translate(120.469 12.505)" fill="#f24dc3"/>
            <path id="Trazado_183818" data-name="Trazado 183818" d="M398.685,36.382h-6.647a1,1,0,0,1,0-1.994h6.647a1,1,0,1,1,0,1.994" transform="translate(118.482 10.419)" fill="#c1aaf7"/>
            <path id="Trazado_183819" data-name="Trazado 183819" d="M398.685,39.187h-6.647a1,1,0,0,1,0-1.994h6.647a1,1,0,1,1,0,1.994" transform="translate(118.482 11.269)" fill="#c1aaf7"/>
            <path id="Trazado_183820" data-name="Trazado 183820" d="M394.7,41.992H392.04a1,1,0,1,1,0-1.994H394.7a1,1,0,0,1,0,1.994" transform="translate(118.482 12.119)" fill="#c1aaf7"/>
            <path id="Trazado_183822" data-name="Trazado 183822" d="M491.5,262.234H362.588a12.378,12.378,0,0,1-12.378-12.378V177.111a12.378,12.378,0,0,1,12.378-12.378H491.5a12.378,12.378,0,0,1,12.378,12.378v72.745A12.378,12.378,0,0,1,491.5,262.234" transform="translate(106.11 49.912)" fill="#dde2ff"/>
            <path id="Trazado_183824" data-name="Trazado 183824" d="M396.186,189.956H377.345a2.12,2.12,0,0,1-2.12-2.12V182.12a2.119,2.119,0,0,1,2.12-2.12h18.841a2.119,2.119,0,0,1,2.12,2.12v5.716a2.12,2.12,0,0,1-2.12,2.12" transform="translate(113.689 54.538)" fill="#adbcef"/>
            <path id="Trazado_183825" data-name="Trazado 183825" d="M416.115,189.956H397.274a2.12,2.12,0,0,1-2.12-2.12V182.12a2.119,2.119,0,0,1,2.12-2.12h18.841a2.119,2.119,0,0,1,2.12,2.12v5.716a2.12,2.12,0,0,1-2.12,2.12" transform="translate(119.728 54.538)" fill="#adbcef"/>
            <path id="Trazado_183826" data-name="Trazado 183826" d="M436.043,189.956H417.2a2.12,2.12,0,0,1-2.12-2.12V182.12A2.119,2.119,0,0,1,417.2,180h18.841a2.119,2.119,0,0,1,2.12,2.12v5.716a2.12,2.12,0,0,1-2.12,2.12" transform="translate(125.766 54.538)" fill="#adbcef"/>
            <path id="Trazado_183827" data-name="Trazado 183827" d="M455.972,189.956H437.131a2.12,2.12,0,0,1-2.12-2.12V182.12a2.119,2.119,0,0,1,2.12-2.12h18.841a2.119,2.119,0,0,1,2.12,2.12v5.716a2.12,2.12,0,0,1-2.12,2.12" transform="translate(131.804 54.538)" fill="#adbcef"/>
            <path id="Trazado_183828" data-name="Trazado 183828" d="M386.591,199.681H367.75a2.12,2.12,0,0,1-2.12-2.12v-5.716a2.119,2.119,0,0,1,2.12-2.12h18.841a2.119,2.119,0,0,1,2.12,2.12v5.716a2.12,2.12,0,0,1-2.12,2.12" transform="translate(110.782 57.485)" fill="#adbcef"/>
            <path id="Trazado_183829" data-name="Trazado 183829" d="M406.519,199.681H387.678a2.12,2.12,0,0,1-2.12-2.12v-5.716a2.119,2.119,0,0,1,2.12-2.12h18.841a2.119,2.119,0,0,1,2.12,2.12v5.716a2.12,2.12,0,0,1-2.12,2.12" transform="translate(116.82 57.485)" fill="#adbcef"/>
            <path id="Trazado_183830" data-name="Trazado 183830" d="M426.448,199.681H407.607a2.12,2.12,0,0,1-2.12-2.12v-5.716a2.119,2.119,0,0,1,2.12-2.12h18.841a2.119,2.119,0,0,1,2.12,2.12v5.716a2.12,2.12,0,0,1-2.12,2.12" transform="translate(122.859 57.485)" fill="#adbcef"/>
            <path id="Trazado_183831" data-name="Trazado 183831" d="M446.376,199.681H427.535a2.12,2.12,0,0,1-2.12-2.12v-5.716a2.119,2.119,0,0,1,2.12-2.12h18.841a2.119,2.119,0,0,1,2.12,2.12v5.716a2.12,2.12,0,0,1-2.12,2.12" transform="translate(128.897 57.485)" fill="#adbcef"/>
            <path id="Trazado_183832" data-name="Trazado 183832" d="M396.186,209.406H377.345a2.119,2.119,0,0,1-2.12-2.12V201.57a2.12,2.12,0,0,1,2.12-2.12h18.841a2.12,2.12,0,0,1,2.12,2.12v5.716a2.119,2.119,0,0,1-2.12,2.12" transform="translate(113.689 60.431)" fill="#adbcef"/>
            <path id="Trazado_183833" data-name="Trazado 183833" d="M416.115,209.406H397.274a2.119,2.119,0,0,1-2.12-2.12V201.57a2.12,2.12,0,0,1,2.12-2.12h18.841a2.12,2.12,0,0,1,2.12,2.12v5.716a2.119,2.119,0,0,1-2.12,2.12" transform="translate(119.728 60.431)" fill="#adbcef"/>
            <path id="Trazado_183834" data-name="Trazado 183834" d="M436.043,209.406H417.2a2.119,2.119,0,0,1-2.12-2.12V201.57a2.12,2.12,0,0,1,2.12-2.12h18.841a2.12,2.12,0,0,1,2.12,2.12v5.716a2.119,2.119,0,0,1-2.12,2.12" transform="translate(125.766 60.431)" fill="#adbcef"/>
            <path id="Trazado_183835" data-name="Trazado 183835" d="M455.972,209.406H437.131a2.119,2.119,0,0,1-2.12-2.12V201.57a2.12,2.12,0,0,1,2.12-2.12h18.841a2.12,2.12,0,0,1,2.12,2.12v5.716a2.119,2.119,0,0,1-2.12,2.12" transform="translate(131.804 60.431)" fill="#adbcef"/>
            <path id="Trazado_183836" data-name="Trazado 183836" d="M386.591,219.131H367.75a2.119,2.119,0,0,1-2.12-2.12v-5.716a2.119,2.119,0,0,1,2.12-2.12h18.841a2.119,2.119,0,0,1,2.12,2.12v5.716a2.119,2.119,0,0,1-2.12,2.12" transform="translate(110.782 63.378)" fill="#adbcef"/>
            <path id="Trazado_183837" data-name="Trazado 183837" d="M406.519,219.131H387.678a2.119,2.119,0,0,1-2.12-2.12v-5.716a2.119,2.119,0,0,1,2.12-2.12h18.841a2.119,2.119,0,0,1,2.12,2.12v5.716a2.119,2.119,0,0,1-2.12,2.12" transform="translate(116.82 63.378)" fill="#adbcef"/>
            <path id="Trazado_183838" data-name="Trazado 183838" d="M426.448,219.131H407.607a2.119,2.119,0,0,1-2.12-2.12v-5.716a2.119,2.119,0,0,1,2.12-2.12h18.841a2.119,2.119,0,0,1,2.12,2.12v5.716a2.119,2.119,0,0,1-2.12,2.12" transform="translate(122.859 63.378)" fill="#adbcef"/>
            <path id="Trazado_183839" data-name="Trazado 183839" d="M446.376,219.131H427.535a2.119,2.119,0,0,1-2.12-2.12v-5.716a2.119,2.119,0,0,1,2.12-2.12h18.841a2.119,2.119,0,0,1,2.12,2.12v5.716a2.119,2.119,0,0,1-2.12,2.12" transform="translate(128.897 63.378)" fill="#adbcef"/>
            <path id="Trazado_183840" data-name="Trazado 183840" d="M396.186,228.59H377.345a2.12,2.12,0,0,1-2.12-2.12v-5.716a2.119,2.119,0,0,1,2.12-2.12h18.841a2.119,2.119,0,0,1,2.12,2.12v5.716a2.12,2.12,0,0,1-2.12,2.12" transform="translate(113.689 66.244)" fill="#adbcef"/>
            <path id="Trazado_183841" data-name="Trazado 183841" d="M416.115,228.59H397.274a2.12,2.12,0,0,1-2.12-2.12v-5.716a2.119,2.119,0,0,1,2.12-2.12h18.841a2.119,2.119,0,0,1,2.12,2.12v5.716a2.12,2.12,0,0,1-2.12,2.12" transform="translate(119.728 66.244)" fill="#adbcef"/>
            <path id="Trazado_183842" data-name="Trazado 183842" d="M436.043,228.59H417.2a2.12,2.12,0,0,1-2.12-2.12v-5.716a2.119,2.119,0,0,1,2.12-2.12h18.841a2.119,2.119,0,0,1,2.12,2.12v5.716a2.12,2.12,0,0,1-2.12,2.12" transform="translate(125.766 66.244)" fill="#adbcef"/>
            <path id="Trazado_183843" data-name="Trazado 183843" d="M455.972,228.59H437.131a2.12,2.12,0,0,1-2.12-2.12v-5.716a2.119,2.119,0,0,1,2.12-2.12h18.841a2.119,2.119,0,0,1,2.12,2.12v5.716a2.12,2.12,0,0,1-2.12,2.12" transform="translate(131.804 66.244)" fill="#adbcef"/>
            <path id="Trazado_183844" data-name="Trazado 183844" d="M386.591,238.315H367.75a2.12,2.12,0,0,1-2.12-2.12v-5.716a2.119,2.119,0,0,1,2.12-2.12h18.841a2.119,2.119,0,0,1,2.12,2.12V236.2a2.12,2.12,0,0,1-2.12,2.12" transform="translate(110.782 69.191)" fill="#adbcef"/>
            <path id="Trazado_183845" data-name="Trazado 183845" d="M406.519,238.315H387.678a2.12,2.12,0,0,1-2.12-2.12v-5.716a2.119,2.119,0,0,1,2.12-2.12h18.841a2.119,2.119,0,0,1,2.12,2.12V236.2a2.12,2.12,0,0,1-2.12,2.12" transform="translate(116.82 69.191)" fill="#adbcef"/>
            <path id="Trazado_183846" data-name="Trazado 183846" d="M426.448,238.315H407.607a2.12,2.12,0,0,1-2.12-2.12v-5.716a2.119,2.119,0,0,1,2.12-2.12h18.841a2.119,2.119,0,0,1,2.12,2.12V236.2a2.12,2.12,0,0,1-2.12,2.12" transform="translate(122.859 69.191)" fill="#adbcef"/>
            <path id="Trazado_183847" data-name="Trazado 183847" d="M446.376,238.315H427.535a2.12,2.12,0,0,1-2.12-2.12v-5.716a2.119,2.119,0,0,1,2.12-2.12h18.841a2.119,2.119,0,0,1,2.12,2.12V236.2a2.12,2.12,0,0,1-2.12,2.12" transform="translate(128.897 69.191)" fill="#adbcef"/>
            <path id="Trazado_183848" data-name="Trazado 183848" d="M382.7,192.207v39.868a5.467,5.467,0,0,0,5.467,5.467h58.051a5.467,5.467,0,0,0,5.469-5.467V192.207Z" transform="translate(115.956 58.237)" fill="#fff"/>
            <path id="Trazado_183849" data-name="Trazado 183849" d="M451.692,190.366a5.467,5.467,0,0,0-5.467-5.467H388.174a5.467,5.467,0,0,0-5.469,5.467v4.054h68.987Z" transform="translate(115.956 56.023)" fill="#1e3094"/>
            <path id="Trazado_183850" data-name="Trazado 183850" d="M423.894,188.6a1.981,1.981,0,1,1-1.982-1.982,1.982,1.982,0,0,1,1.982,1.982" transform="translate(127.235 56.543)" fill="#fff"/>
            <path id="Trazado_183851" data-name="Trazado 183851" d="M428.427,188.6a1.981,1.981,0,1,1-1.982-1.982,1.982,1.982,0,0,1,1.982,1.982" transform="translate(128.609 56.543)" fill="#fff"/>
            <path id="Trazado_183852" data-name="Trazado 183852" d="M432.961,188.6a1.981,1.981,0,1,1-1.982-1.982,1.982,1.982,0,0,1,1.982,1.982" transform="translate(129.982 56.543)" fill="#c1aaf7"/>
            <path id="Trazado_183853" data-name="Trazado 183853" d="M424.855,215.751c-.39-5.083-2.756-8.267-4.844-11.078-1.932-2.6-3.6-4.85-3.6-8.165a.709.709,0,0,0-1.123-.577,18.057,18.057,0,0,0-6.665,9.633,31.431,31.431,0,0,0-.73,7.2c-2.9-.619-3.552-4.949-3.558-5a.715.715,0,0,0-.37-.526.706.706,0,0,0-.644-.012c-.151.073-3.727,1.889-3.935,9.143-.014.241-.014.482-.014.724a12.794,12.794,0,0,0,12.78,12.78.209.209,0,0,0,.029,0h.009a12.8,12.8,0,0,0,12.742-12.78c0-.354-.073-1.346-.073-1.346m-12.707,12.705a4.409,4.409,0,0,1-4.259-4.537c0-.086,0-.172.005-.278a5.746,5.746,0,0,1,.448-2.254,2.592,2.592,0,0,0,2.344,1.7.709.709,0,0,0,.71-.71,14.2,14.2,0,0,1,.272-3.229,6.86,6.86,0,0,1,1.437-2.722,9.158,9.158,0,0,0,1.465,2.684,8.1,8.1,0,0,1,1.82,4.434c.009.121.018.244.018.377a4.411,4.411,0,0,1-4.261,4.537" transform="translate(121.005 59.325)" fill="#f24dc3"/>
            <path id="Trazado_183854" data-name="Trazado 183854" d="M491.5,412.143H362.588a12.378,12.378,0,0,1-12.378-12.378V327.02a12.378,12.378,0,0,1,12.378-12.378H491.5a12.378,12.378,0,0,1,12.378,12.378v72.745A12.378,12.378,0,0,1,491.5,412.143" transform="translate(106.11 95.333)" fill="#dde2ff"/>
            <path id="Trazado_183856" data-name="Trazado 183856" d="M381.9,382.123a23.572,23.572,0,1,1,22.543-24.557A23.572,23.572,0,0,1,381.9,382.123" transform="translate(108.266 101.502)" fill="#fff"/>
            <path id="Trazado_183857" data-name="Trazado 183857" d="M378.776,377.113a20.567,20.567,0,0,0,13.625-5.155,5.314,5.314,0,0,0-2.913-4.427l-5.681-2.839a1.567,1.567,0,0,1-.869-1.407,4.7,4.7,0,0,1,.351-2.485c3.061-4.474,3.489-7.849,2.725-12.279-.657-3.807-3.248-6.493-7.238-6.493a8.13,8.13,0,0,0-7.891,7.238,18.011,18.011,0,0,0,1.591,9.3,12.122,12.122,0,0,0,1.544,2.7v1.969a1.571,1.571,0,0,1-.82,1.38l-5.3,2.894a5.342,5.342,0,0,0-2.76,4.443,20.57,20.57,0,0,0,13.641,5.168" transform="translate(110.632 103.631)" fill="#f24dc3"/>
            <path id="Trazado_183858" data-name="Trazado 183858" d="M470.353,355.439H397.385a8.469,8.469,0,0,1,0-16.939h72.967a8.469,8.469,0,0,1,0,16.939" transform="translate(117.838 102.562)" fill="#1e3094"/>
          </g>
        </g>
        <text id="_" data-name="****" transform="translate(515.853 454.37) rotate(-0.109)" fill="#adbcef" font-size="10" font-family="Montserrat-ExtraBold, Montserrat" font-weight="800"><tspan x="0" y="0" letter-spacing="0.24em">***</tspan><tspan y="0">*</tspan></text>
        <g id="Grupo_151467" data-name="Grupo 151467">
          <g id="Grupo_151466" data-name="Grupo 151466" clip-path="url(#clip-path)">
            <path id="Trazado_183859" data-name="Trazado 183859" d="M470.853,371.939H397.885a8.469,8.469,0,0,1,0-16.939h72.967a8.469,8.469,0,0,1,0,16.939" transform="translate(117.989 107.561)" fill="#1e3094"/>
          </g>
        </g>
        <text id="_2" data-name="**********" transform="translate(516.505 475.869) rotate(-0.109)" fill="#fff" font-size="10" font-family="Montserrat-ExtraBold, Montserrat" font-weight="800"><tspan x="0" y="0" letter-spacing="0.24em">*********</tspan><tspan y="0">*</tspan></text>
        <g id="Grupo_151514" data-name="Grupo 151514">
          <g id="Grupo_151513" data-name="Grupo 151513" clip-path="url(#clip-path)">
            <path id="Trazado_183860" data-name="Trazado 183860" d="M458.658,339.121A9.121,9.121,0,1,1,449.537,330a9.121,9.121,0,0,1,9.121,9.121" transform="translate(133.442 99.987)" fill="#fff"/>
            <path id="Trazado_183861" data-name="Trazado 183861" d="M450.215,338.092,452.9,335.4a1.028,1.028,0,0,0,0-1.452l-.255-.254a1.025,1.025,0,0,0-1.451,0l-2.688,2.687-2.687-2.687a1.027,1.027,0,0,0-1.453,0l-.254.254a1.025,1.025,0,0,0,0,1.452l2.687,2.688-2.687,2.688a1.025,1.025,0,0,0,0,1.452l.254.254a1.027,1.027,0,0,0,1.453,0l2.687-2.687,2.688,2.687a1.025,1.025,0,0,0,1.451,0l.255-.254a1.028,1.028,0,0,0,0-1.452Z" transform="translate(134.471 101.016)" fill="#c1aaf7"/>
            <path id="Trazado_183862" data-name="Trazado 183862" d="M458.658,374.121A9.121,9.121,0,1,1,449.537,365a9.121,9.121,0,0,1,9.121,9.121" transform="translate(133.442 110.591)" fill="#fff"/>
            <path id="Trazado_183863" data-name="Trazado 183863" d="M447.884,376.571a1.219,1.219,0,0,1-.792.3h-.038a1.064,1.064,0,0,1-.794-.378l-2.747-3.041a1.132,1.132,0,0,1,.089-1.605l.005-.005a1.133,1.133,0,0,1,1.594.089l1.225,1.359a1.132,1.132,0,0,0,1.621.063l4.445-4.226a1.132,1.132,0,1,1,1.556,1.646Z" transform="translate(134.292 111.748)" fill="#c1aaf7"/>
            <g id="Grupo_151470" data-name="Grupo 151470" transform="translate(0 109.656)" opacity="0.15">
              <g id="Grupo_151469" data-name="Grupo 151469">
                <g id="Grupo_151468" data-name="Grupo 151468" clip-path="url(#clip-path-5)">
                  <path id="Trazado_183864" data-name="Trazado 183864" d="M341.085,194.256a35.6,35.6,0,0,0-25.222-12.025c-16.156-.654-34.5,2.19-50.344-3.755-20.6-7.729-22.762-24.69-29.343-43.3-8.367-23.66-29.364-42.536-53.979-48.521-13.857-3.368-37.857-4.222-50.553,3.152-28.216,16.388-3.311,24.772-7.484,48.725-3.751,21.5-41.366,30.743-59.455,34.485-14.268,2.951-29.213,3.91-42.382,10.09S-2.106,202.78.336,217c3.51,20.453,28.3,19.335,40.694,30.478,25.15,22.615,2.076,27.381-14.528,50-29.573,40.295,39.26,64.815,67.167,69.2a558.363,558.363,0,0,0,110.438,5.886q27.685-1.184,55.189-4.82c15.52-2.039,33.2-3.087,45.975-13.112,25.017-19.63,6.481-36.282-7.8-48.661-34.039-29.517,34.933-54.743,47.121-74.509,8.016-13,5.172-27.365-3.509-37.213" transform="translate(0 -84.157)" fill="#dde2ff"/>
                </g>
              </g>
            </g>
            <path id="Trazado_183865" data-name="Trazado 183865" d="M90.864,104.581c.007-1.213.013-2.371.013-3.578q0-1.11-.014-2.124a12.954,12.954,0,0,0,0,5.7" transform="translate(27.434 29.959)" fill="#ddeaff"/>
            <path id="Trazado_183867" data-name="Trazado 183867" d="M186.129,370.654a4.667,4.667,0,1,1-4.667-4.667,4.668,4.668,0,0,1,4.667,4.667" transform="translate(53.567 110.89)" fill="#ccdbff"/>
            <g id="Grupo_151473" data-name="Grupo 151473" transform="translate(245.636 476.878)" opacity="0.5">
              <g id="Grupo_151472" data-name="Grupo 151472">
                <g id="Grupo_151471" data-name="Grupo 151471" clip-path="url(#clip-path-6)">
                  <path id="Trazado_183868" data-name="Trazado 183868" d="M197.851,370.654a4.667,4.667,0,1,1-4.667-4.667,4.668,4.668,0,0,1,4.667,4.667" transform="translate(-188.517 -365.987)" fill="#ccdbff"/>
                </g>
              </g>
            </g>
            <g id="Grupo_151476" data-name="Grupo 151476" transform="translate(260.909 476.878)" opacity="0.5">
              <g id="Grupo_151475" data-name="Grupo 151475">
                <g id="Grupo_151474" data-name="Grupo 151474" clip-path="url(#clip-path-7)">
                  <path id="Trazado_183869" data-name="Trazado 183869" d="M209.572,370.654a4.667,4.667,0,1,1-4.667-4.667,4.667,4.667,0,0,1,4.667,4.667" transform="translate(-200.239 -365.987)" fill="#ccdbff"/>
                </g>
              </g>
            </g>
            <g id="Grupo_151479" data-name="Grupo 151479" transform="translate(276.183 476.878)" opacity="0.5">
              <g id="Grupo_151478" data-name="Grupo 151478">
                <g id="Grupo_151477" data-name="Grupo 151477" clip-path="url(#clip-path-7)">
                  <path id="Trazado_183870" data-name="Trazado 183870" d="M221.294,370.654a4.667,4.667,0,1,1-4.667-4.667,4.668,4.668,0,0,1,4.667,4.667" transform="translate(-211.961 -365.987)" fill="#ccdbff"/>
                </g>
              </g>
            </g>
            <path id="Trazado_183871" data-name="Trazado 183871" d="M58.424,27.913a4.667,4.667,0,1,1-4.667-4.667,4.668,4.668,0,0,1,4.667,4.667" transform="translate(14.874 7.043)" fill="#ccdbff"/>
            <g id="Grupo_151482" data-name="Grupo 151482" transform="translate(79.238 30.289)" opacity="0.5">
              <g id="Grupo_151481" data-name="Grupo 151481">
                <g id="Grupo_151480" data-name="Grupo 151480" clip-path="url(#clip-path-9)">
                  <path id="Trazado_183872" data-name="Trazado 183872" d="M70.146,27.913a4.667,4.667,0,1,1-4.667-4.667,4.669,4.669,0,0,1,4.667,4.667" transform="translate(-60.812 -23.246)" fill="#ccdbff"/>
                </g>
              </g>
            </g>
            <g id="Grupo_151485" data-name="Grupo 151485" transform="translate(94.511 30.289)" opacity="0.5">
              <g id="Grupo_151484" data-name="Grupo 151484">
                <g id="Grupo_151483" data-name="Grupo 151483" clip-path="url(#clip-path-9)">
                  <path id="Trazado_183873" data-name="Trazado 183873" d="M81.867,27.913A4.667,4.667,0,1,1,77.2,23.246a4.668,4.668,0,0,1,4.667,4.667" transform="translate(-72.534 -23.246)" fill="#ccdbff"/>
                </g>
              </g>
            </g>
            <g id="Grupo_151488" data-name="Grupo 151488" transform="translate(109.784 30.289)" opacity="0.5">
              <g id="Grupo_151487" data-name="Grupo 151487">
                <g id="Grupo_151486" data-name="Grupo 151486" clip-path="url(#clip-path-9)">
                  <path id="Trazado_183874" data-name="Trazado 183874" d="M93.589,27.913a4.667,4.667,0,1,1-4.667-4.667,4.668,4.668,0,0,1,4.667,4.667" transform="translate(-84.255 -23.246)" fill="#ccdbff"/>
                </g>
              </g>
            </g>
            <path id="Trazado_183875" data-name="Trazado 183875" d="M246.187,119.836a12.187,12.187,0,0,1-10-10.377.676.676,0,0,0-1.32-.179,21.964,21.964,0,0,1-4.153,7.909,9.967,9.967,0,0,1-3.6,2.51,17.346,17.346,0,0,1-4.127.688.134.134,0,0,0-.031.242,3.356,3.356,0,0,0,.341.141,2.215,2.215,0,0,0-.491.293.487.487,0,0,0-.077.59c.761,1.108,2.1,1.11,3.294,1.575a13.522,13.522,0,0,1,3.618,2.126,12.006,12.006,0,0,1,4.435,7.03,1.042,1.042,0,0,0,2,0,12.079,12.079,0,0,1,10.111-10.141,1.258,1.258,0,0,0,0-2.408" transform="translate(67.465 32.966)" fill="#e9f0ff"/>
            <path id="Trazado_183876" data-name="Trazado 183876" d="M25.773,141.037a9.065,9.065,0,0,1-7.436-7.72.5.5,0,0,0-.982-.133,16.337,16.337,0,0,1-3.089,5.884,7.419,7.419,0,0,1-2.679,1.867,12.873,12.873,0,0,1-3.07.511.1.1,0,0,0-.023.181,2.259,2.259,0,0,0,.254.1,1.622,1.622,0,0,0-.366.219.362.362,0,0,0-.057.439c.567.824,1.565.826,2.451,1.171a10.048,10.048,0,0,1,2.692,1.582,8.929,8.929,0,0,1,3.3,5.23.776.776,0,0,0,1.485,0,8.985,8.985,0,0,1,7.522-7.544.936.936,0,0,0,0-1.792" transform="translate(2.507 40.245)" fill="#e9f0ff"/>
            <path id="Trazado_183877" data-name="Trazado 183877" d="M48.414,312.162a10.711,10.711,0,0,1-3.544-1.308,10.482,10.482,0,0,1,1.908-4.1.589.589,0,0,0-.7-.924,27.482,27.482,0,0,1-4.616,1.853,10.507,10.507,0,0,1-1.75-4.559.588.588,0,0,0-1.149-.155,25.639,25.639,0,0,1-2.192,4.964,8.25,8.25,0,0,1-1.483-.463,14.98,14.98,0,0,1-2.964-2.116c-.081-.06-.2.04-.169.129a2.97,2.97,0,0,0,.124.3,1.877,1.877,0,0,0-.483-.121.422.422,0,0,0-.41.317c-.214,1.149.611,1.978,1.058,3a11.781,11.781,0,0,1,.78,2.572,8.471,8.471,0,0,1-1.012.5,15.044,15.044,0,0,1-3.594.6.116.116,0,0,0-.027.211,3.1,3.1,0,0,0,.3.122,1.9,1.9,0,0,0-.429.255.425.425,0,0,0-.066.515c.663.964,1.832.967,2.869,1.371a11.717,11.717,0,0,1,1.943.993,8.524,8.524,0,0,1-1.441,3.463c-.52.7.528,1.737,1.23,1.229a10.864,10.864,0,0,1,3.493-1.672,8.87,8.87,0,0,1,1.788,3.961.909.909,0,0,0,1.739,0A10.821,10.821,0,0,1,41.156,319a10.5,10.5,0,0,1,3.9,1.78c.856.627,2.082-.628,1.483-1.483a10.686,10.686,0,0,1-1.68-3.813,10.53,10.53,0,0,1,3.551-1.229,1.1,1.1,0,0,0,0-2.1" transform="translate(8.463 91.67)" fill="#e9f0ff"/>
            <path id="Trazado_183878" data-name="Trazado 183878" d="M259.759,258.714a6.35,6.35,0,0,1-2.107-.778,6.25,6.25,0,0,1,1.134-2.438.35.35,0,0,0-.418-.549,16.244,16.244,0,0,1-2.744,1.1,6.242,6.242,0,0,1-1.04-2.71.35.35,0,0,0-.684-.093,15.3,15.3,0,0,1-1.3,2.953,5.011,5.011,0,0,1-.882-.275,8.966,8.966,0,0,1-1.763-1.259c-.047-.035-.117.023-.1.077s.047.119.073.177a1.041,1.041,0,0,0-.287-.073.251.251,0,0,0-.244.188c-.128.684.364,1.177.628,1.783a6.845,6.845,0,0,1,.464,1.53,5.03,5.03,0,0,1-.6.294,8.963,8.963,0,0,1-2.137.357.069.069,0,0,0-.017.125,1.744,1.744,0,0,0,.177.073,1.159,1.159,0,0,0-.255.152.252.252,0,0,0-.039.3c.395.573,1.089.575,1.706.816a7,7,0,0,1,1.156.59,5.067,5.067,0,0,1-.857,2.059c-.309.418.314,1.033.732.732a6.472,6.472,0,0,1,2.076-1,5.269,5.269,0,0,1,1.063,2.356.54.54,0,0,0,1.035,0,6.438,6.438,0,0,1,.92-2.43,6.256,6.256,0,0,1,2.322,1.058c.508.373,1.237-.374.881-.882a6.386,6.386,0,0,1-1-2.266,6.265,6.265,0,0,1,2.112-.731.651.651,0,0,0,0-1.247" transform="translate(75.014 76.656)" fill="#e9f0ff"/>
            <path id="Trazado_183880" data-name="Trazado 183880" d="M187.618,114.874a3.633,3.633,0,1,1-5.035,1.025,3.633,3.633,0,0,1,5.035-1.025" transform="translate(55.138 34.623)" fill="#ff929c"/>
            <path id="Trazado_183882" data-name="Trazado 183882" d="M238.659,60.486a6.681,6.681,0,0,1,6.9,6.894V86.614a6.87,6.87,0,0,1-6.9,6.9H226.964a5.363,5.363,0,0,0-3.327,1.392l-7.6,7.7c-.758.766-1.538.53-1.741-.529l-1.276-6.644A2.291,2.291,0,0,0,211,93.516h-1.652a6.626,6.626,0,0,1-6.9-6.9V67.38a6.558,6.558,0,0,1,6.9-6.894Z" transform="translate(61.34 18.327)" fill="#c1aaf7"/>
            <path id="Trazado_183883" data-name="Trazado 183883" d="M222.2,87.551a11.968,11.968,0,1,1,11.447-12.468A11.967,11.967,0,0,1,222.2,87.551" transform="translate(63.544 19.278)" fill="#1e3094"/>
            <path id="Trazado_183884" data-name="Trazado 183884" d="M220.616,85.006a10.442,10.442,0,0,0,6.918-2.618,2.7,2.7,0,0,0-1.48-2.248L223.169,78.7a.8.8,0,0,1-.44-.715,2.386,2.386,0,0,1,.178-1.261,7.528,7.528,0,0,0,1.382-6.235,3.645,3.645,0,0,0-3.676-3.3,4.131,4.131,0,0,0-4.007,3.676,9.157,9.157,0,0,0,.808,4.719,6.245,6.245,0,0,0,.784,1.371v1a.8.8,0,0,1-.416.7l-2.693,1.47a2.713,2.713,0,0,0-1.4,2.255,10.445,10.445,0,0,0,6.928,2.624" transform="translate(64.745 20.359)" fill="#adbcef"/>
            <path id="Trazado_183885" data-name="Trazado 183885" d="M80.143,317.564,38.662,350.083a7.482,7.482,0,1,0,9.264,11.752l41.481-32.519c-3.233-3.788-6.06-7.933-9.264-11.752" transform="translate(10.853 96.219)" fill="#ff929c"/>
            <path id="Trazado_183886" data-name="Trazado 183886" d="M72.74,323.638a3.846,3.846,0,0,0-5.4-.644L31.649,351.807a11.6,11.6,0,0,0-2.761,15.309c.027.042.056.082.085.124l48.353-37.65c-1.517-1.995-3.031-3.991-4.585-5.952" transform="translate(8.217 97.615)" fill="#6b72b5"/>
            <path id="Trazado_183887" data-name="Trazado 183887" d="M28.542,365.514a11.434,11.434,0,0,0,16.571,2.663l36.527-29.47a2.936,2.936,0,0,0,.457-4.158c-1.777-2.19-3.491-4.437-5.2-6.686Z" transform="translate(8.648 99.34)" fill="#424880"/>
            <g id="Grupo_151491" data-name="Grupo 151491" transform="translate(89.081 366.151)" opacity="0.8">
              <g id="Grupo_151490" data-name="Grupo 151490">
                <g id="Grupo_151489" data-name="Grupo 151489" clip-path="url(#clip-path-12)">
                  <path id="Trazado_183888" data-name="Trazado 183888" d="M113.039,283.477c.345.138.631.413.968.562s.708.232,1.04.391.752.159,1.079.33.538.566.859.747.795.115,1.109.308.431.7.739.907.644.365.943.579.612.412.906.636.549.5.833.728.773.236,1.049.48.468.592.736.844.466.581.727.843.657.4.907.67.431.611.672.89.6.469.833.756.443.6.665.9.073.859.284,1.162.552.512.753.822.509.552.7.868.427.61.607.933.222.721.39,1.049.141.749.3,1.083.7.494.847.833.323.674.457,1.018-.014.795.108,1.144.069.749.18,1.1.319.67.417,1.025.281.687.369,1.046.211.709.284,1.071-.078.761-.017,1.126.573.661.623,1.027.031.747.068,1.114-.016.747.009,1.115-.177.748-.167,1.117-.085.734-.086,1.1.409.745.395,1.115.023.748,0,1.117-.447.7-.486,1.07.048.748,0,1.114-.236.708-.3,1.071.1.771.023,1.134-.21.71-.3,1.07-.468.636-.569.992.261.851.147,1.2-.607.575-.734.922.106.831-.031,1.177-.563.572-.71.909-.343.655-.5.988-.361.642-.532.969-.283.685-.465,1.006-.117.794-.31,1.108-.641.473-.844.78-.41.612-.624.913-.314.688-.537.981-.395.637-.628.923-.539.519-.783.795-.365.675-.618.943-.6.457-.863.717-.5.556-.77.807-.507.554-.786.795-.649.387-.936.618-.8.173-1.1.395-.383.728-.685.939-.556.507-.866.708-.666.341-.982.532-.628.4-.95.582-.842-.007-1.17.162-.52.612-.853.77-.693.268-1.032.413-.692.263-1.036.4-.645.395-.994.517-.821-.133-1.174-.022-.616.512-.972.61-.68.345-1.038.433-.754.039-1.117.113-.79-.219-1.154-.156-.675.448-1.042.5-.727.175-1.095.211-.765-.307-1.135-.284-.717.444-1.087.456-.745.073-1.114.072-.741-.16-1.11-.175-.743-.013-1.111-.04-.751.039-1.118,0-.68-.511-1.048-.564-.74-.01-1.1-.076-.7-.212-1.067-.289-.779.1-1.139.014-.636-.469-.992-.571-.8.1-1.152-.018-.58-.577-.929-.7-.685-.249-1.029-.387-.773-.064-1.11-.211-.6-.453-.937-.614-.653-.335-.98-.506-.67-.306-.992-.487-.775-.141-1.089-.334-.438-.688-.745-.891-.744-.216-1.044-.43-.551-.5-.844-.721-.721-.283-1.006-.516-.631-.409-.908-.653-.242-.831-.511-1.084-.665-.371-.924-.635-.6-.447-.853-.717-.262-.754-.5-1.035-.687-.384-.919-.672-.614-.465-.834-.76-.345-.671-.556-.973-.506-.558-.706-.866-.1-.81-.291-1.127-.586-.513-.766-.837-.292-.684-.46-1.012-.073-.783-.231-1.118-.536-.564-.681-.9-.522-.589-.657-.934.172-.851.05-1.2-.62-.572-.731-.924-.125-.739-.223-1.095-.262-.7-.349-1.059-.2-.718-.275-1.08.142-.78.081-1.144-.418-.687-.468-1.053.162-.765.125-1.134.056-.741.031-1.111-.3-.723-.314-1.092-.077-.743-.076-1.113.182-.736.2-1.106-.162-.751-.134-1.119.326-.714.365-1.081-.053-.751,0-1.117.2-.715.268-1.08.147-.721.225-1.083.119-.728.208-1.088.356-.666.457-1.022.043-.754.156-1.108.145-.732.27-1.08.2-.719.334-1.065.526-.584.675-.921.272-.688.431-1.02.027-.818.2-1.145.644-.5.825-.817.422-.606.615-.921.255-.711.459-1.019.327-.676.541-.977.37-.654.593-.946.631-.45.865-.735.55-.5.794-.777.272-.753.525-1.022.558-.5.82-.756.585-.463.856-.713.516-.537.795-.778.73-.278,1.016-.508.6-.42.9-.641.409-.693.711-.9.7-.291,1.006-.492.572-.478.889-.668.645-.362.968-.542.559-.53.887-.7.794-.068,1.127-.225.685-.272,1.024-.417.671-.3,1.015-.438.641-.4.989-.519.672-.332,1.024-.443.744-.1,1.1-.2.689-.293,1.049-.379.765.031,1.127-.042.747,0,1.111-.063.713-.184,1.079-.232.736-.008,1.1-.044.721-.172,1.089-.2.723-.367,1.093-.378.743.4,1.113.4.741-.261,1.111-.246.744-.035,1.113-.009.739.077,1.106.116.741.063,1.108.115.736.1,1.1.165.715.206,1.078.283.722.164,1.081.254.747.079,1.1.181.674.335,1.025.45.636.418.985.545.757.081,1.1.219" transform="translate(-68.367 -281.008)" fill="#ffd4dd"/>
                </g>
              </g>
            </g>
            <path id="Trazado_183889" data-name="Trazado 183889" d="M67.777,301.085c-.138.348-.446.627-.573.977s-.5.62-.622.973-.265.709-.371,1.066-.218.724-.314,1.084-.052.765-.137,1.127.261.821.186,1.186-.231.711-.293,1.079-.263.711-.315,1.081.056.756.016,1.127-.469.706-.5,1.079.358.77.34,1.143-.3.736-.308,1.109.3.744.3,1.118-.3.753-.287,1.126.289.728.317,1.1-.364.783-.324,1.154.137.741.188,1.111.457.687.519,1.054-.025.761.047,1.127,0,.766.082,1.13.594.62.688.981-.159.816-.053,1.174.185.727.3,1.082.606.579.732.93-.2.872-.063,1.218.688.524.835.866-.014.822.143,1.161.44.618.608.951.451.6.628.932.232.723.42,1.045.159.78.356,1.1.466.594.674.906.653.457.869.762.215.769.44,1.067.5.558.737.85.336.7.579.981.847.252,1.1.528.36.681.62.95.387.67.655.93.694.354.969.606.522.534.807.778.717.3,1.007.537.4.694.7.921.62.42.925.636.479.627.791.834.654.374.971.572.655.369.979.558.784.13,1.114.31.614.433.949.6.719.219,1.058.379.575.542.919.692.721.219,1.07.358.74.158,1.089.285.774.039,1.127.156.6.564.959.671.758.068,1.118.163.724.178,1.087.263.681.39,1.048.464.723.233,1.091.3.809-.337,1.178-.285.7.438,1.068.478.766-.162,1.138-.133.73.318,1.1.335.753-.13,1.126-.124.747-.051,1.119-.056.749.1,1.122.089.735-.218,1.106-.245.765.172,1.136.133.7-.387,1.074-.437.732-.112,1.1-.173.731-.116,1.1-.189.827.294,1.191.21.637-.542,1-.637.751-.082,1.109-.188.765-.057,1.121-.175.687-.308,1.037-.434.714-.229,1.062-.367.666-.351,1.008-.5.688-.291,1.027-.448.7-.263,1.038-.43.5-.644.833-.821.85-.008,1.173-.2.473-.661.791-.859.814-.113,1.124-.319.417-.713.722-.928.859-.093,1.157-.317.5-.576.8-.809.4-.684.685-.926.489-.564.765-.814.554-.489.822-.748.838-.214,1.1-.481.361-.688.614-.963.714-.366.958-.649.19-.816.426-1.106.464-.577.691-.874.642-.452.86-.757.155-.8.364-1.109.843-.341,1.041-.658.284-.708.473-1.029.271-.708.45-1.036.278-.7.447-1.032.542-.567.7-.906.014-.813.164-1.157.447-.62.586-.969.457-.629.585-.98.141-.748.258-1.1.235-.714.34-1.071.327-.691.422-1.05.169-.735.255-1.1-.3-.83-.222-1.2.443-.675.506-1.042.1-.743.154-1.112.245-.727.285-1.1-.173-.769-.145-1.14-.122-.752-.1-1.125.453-.732.46-1.1-.065-.752-.07-1.124-.387-.734-.4-1.106.43-.774.4-1.145,0-.757-.043-1.127-.289-.723-.339-1.092-.2-.726-.261-1.095-.288-.7-.36-1.068.292-.827.208-1.191-.422-.668-.516-1.029-.405-.659-.511-1.018-.262-.692-.378-1.048-.108-.745-.235-1.1-.134-.745-.271-1.092-.122-.76-.271-1.1-.519-.588-.676-.925-.494-.585-.662-.919.017-.848-.162-1.177-.71-.453-.9-.777.107-.936-.09-1.252-.7-.442-.908-.753-.476-.575-.691-.878-.246-.745-.472-1.042-.383-.653-.618-.943-.713-.38-.955-.665-.584-.473-.835-.749-.347-.691-.606-.96-.388-.667-.655-.928-.45-.62-.724-.873-.834-.188-1.118-.431-.33-.77-.62-1.006-.691-.335-.988-.562-.512-.571-.816-.788-.894-.018-1.205-.227-.4-.744-.718-.942-.6-.459-.923-.648-.8-.1-1.13-.281-.678-.3-1.012-.474-.631-.4-.969-.555-.751-.138-1.1-.288-.466-.822-.814-.962-.9.255-1.248.128-.666-.345-1.019-.463-.688-.292-1.045-.4-.7-.278-1.057-.374-.659-.457-1.022-.542-.749-.113-1.114-.188-.77.027-1.138-.035-.757.012-1.127-.039-.71-.349-1.081-.39-.74-.178-1.111-.207-.753-.053-1.126-.072-.754,0-1.127-.01-.754,0-1.127,0-.743.255-1.115.272-.76-.156-1.132-.129-.74.145-1.111.184-.765-.069-1.135-.02-.687.466-1.055.528-.78-.117-1.147-.044-.688.353-1.052.436-.774-.02-1.135.076-.657.429-1.014.533-.731.156-1.085.272-.661.365-1.011.491-.757.1-1.1.237-.771.094-1.114.241-.508.691-.846.848-.756.141-1.089.309-.71.251-1.038.43-.593.465-.916.653-.722.249-1.038.446-.71.283-1.022.49-.366.783-.671,1-.727.263-1.025.489-.46.616-.751.851-.83.167-1.114.41-.379.7-.655.95-.466.586-.735.846-.874.178-1.135.446-.306.741-.558,1.016-.373.662-.618.945-.472.569-.706.859-.541.517-.767.816-.654.444-.872.748-.337.678-.546.988-.22.741-.418,1.058-.52.552-.709.876-.457.6-.637.926-.511.58-.68.913-.321.68-.479,1.019-.281.7-.43,1.042.063.835-.077,1.183m64.1,25.576c-.138.347-.456.622-.606.962s-.547.566-.708.9-.356.645-.528.973-.354.645-.538.967-.25.71-.444,1.025-.033.867-.238,1.175-.5.572-.715.873-.56.516-.787.81-.344.684-.581.969-.78.31-1.028.586-.2.83-.455,1.1-.715.343-.981.6-.331.74-.606.989-.767.257-1.052.5-.416.671-.708.9-.846.115-1.145.334-.567.473-.874.681-.425.71-.739.908-.717.258-1.037.446-.721.231-1.048.407-.461.734-.795.9-.829-.007-1.169.146-.691.267-1.035.408-.551.641-.9.77-.861-.211-1.214-.094-.577.649-.934.753-.808-.129-1.167-.036-.691.306-1.054.386-.7.275-1.071.341-.758-.016-1.127.038-.765-.158-1.135-.117-.724.151-1.095.178-.724.335-1.1.349-.748-.252-1.119-.25-.739.057-1.111.047-.726-.21-1.1-.235-.779.418-1.149.382-.718-.278-1.087-.328-.7-.3-1.07-.36-.769.09-1.134.013-.715-.2-1.078-.292-.783.044-1.141-.059-.629-.49-.985-.6-.715-.2-1.066-.323-.608-.476-.955-.614-.7-.235-1.041-.384-.685-.276-1.02-.438-.792-.078-1.121-.25-.615-.434-.937-.618-.709-.268-1.024-.464-.494-.61-.8-.816-.658-.35-.959-.567-.674-.343-.968-.569-.728-.291-1.014-.528-.341-.751-.618-1-.65-.393-.919-.65-.541-.515-.8-.78-.345-.694-.594-.969-.422-.611-.662-.9-.834-.28-1.063-.572-.182-.8-.4-1.1-.628-.468-.837-.775-.19-.764-.388-1.078-.526-.549-.713-.869-.42-.62-.6-.947-.238-.713-.4-1.046-.486-.6-.638-.934-.083-.774-.224-1.118-.562-.581-.691-.93-.259-.7-.375-1.057-.219-.718-.323-1.075.236-.834.145-1.194-.549-.632-.627-1-.039-.753-.106-1.119.038-.756-.017-1.125-.172-.723-.214-1.092-.043-.739-.072-1.11-.124-.735-.139-1.106-.013-.741-.014-1.113.068-.739.079-1.111-.313-.761-.288-1.132.457-.708.5-1.079-.245-.777-.194-1.145.442-.683.506-1.05-.218-.8-.142-1.161.575-.629.663-.99.038-.753.139-1.111-.055-.793.059-1.148.137-.747.263-1.1.276-.7.414-1.046.683-.524.833-.864.108-.769.27-1.1.581-.538.754-.866.016-.84.2-1.162.38-.648.575-.963.6-.5.808-.808.147-.808.364-1.109.853-.292,1.08-.585.356-.659.593-.945.39-.642.636-.919.439-.608.7-.876.683-.367.95-.627.313-.751.588-1,.668-.369.952-.609.693-.321.985-.55.512-.546.812-.765.6-.429.911-.637.68-.307.994-.506.616-.4.937-.59.417-.779.744-.955.8-.076,1.136-.24.659-.339,1-.491.736-.162,1.08-.3.6-.507.947-.636.648-.418,1-.534.834.177,1.191.073.692-.27,1.052-.361.64-.539,1-.619.82.31,1.186.244.734-.069,1.1-.122.7-.3,1.074-.345.731-.168,1.1-.2.736-.211,1.108-.225.752.43,1.124.429.741-.254,1.113-.242.757-.19,1.128-.165.753.005,1.123.043.73.215,1.1.266.717.238,1.084.3.7.3,1.059.377.778-.077,1.139.013.775,0,1.135.1.6.593.954.708.837-.149,1.188-.022.5.788.842.926.825-.047,1.165.1.714.241,1.048.4.564.539.893.711.608.431.93.615.8.106,1.118.3.706.292,1.015.5.5.6.8.813.485.592.779.818.493.562.778.8.84.162,1.117.409.3.773.564,1.029.648.4.907.662.4.637.65.912.872.227,1.11.511.167.827.4,1.119.391.631.61.93.688.423.9.73.457.6.655.909.33.675.517,1,.537.559.713.887-.165.92,0,1.253.833.429.985.767.208.728.349,1.072.216.718.344,1.067.185.726.3,1.078-.04.787.064,1.144.253.693.344,1.054.345.678.425,1.041.283.7.349,1.068-.122.773-.069,1.141,0,.743.038,1.113.073.73.1,1.1.073.732.089,1.1.026.735.027,1.106.238.743.227,1.114-.224.73-.249,1.1.027.744-.009,1.114-.235.714-.285,1.083.254.788.19,1.156-.379.683-.455,1.048.044.77-.046,1.132-.374.668-.476,1.027.025.783-.09,1.139-.293.688-.42,1.038-.122.753-.261,1.1" transform="translate(19.65 84.063)" fill="#f24dc3"/>
            <path id="Trazado_183890" data-name="Trazado 183890" d="M113.367,301.476c-.046-1.014-.046-1.983-.046-2.951a1.358,1.358,0,0,0-1.384-1.382c-5.763,0-10.144-1.66-13.787-5.211a1.423,1.423,0,0,0-1.936,0c-3.642,3.551-8.023,5.211-13.787,5.211a1.358,1.358,0,0,0-1.382,1.382c0,.968,0,1.938-.047,2.951-.184,9.683-.46,22.963,15.723,28.541l.461.093.461-.093c16.138-5.578,15.908-18.811,15.723-28.541" transform="translate(24.529 88.337)" fill="#ff929c"/>
            <g id="Grupo_151494" data-name="Grupo 151494" transform="translate(114.02 390.793)" opacity="0.8">
              <g id="Grupo_151493" data-name="Grupo 151493">
                <g id="Grupo_151492" data-name="Grupo 151492" clip-path="url(#clip-path-13)">
                  <path id="Trazado_183891" data-name="Trazado 183891" d="M100.635,302.174a7.69,7.69,0,1,0,0,10.875,7.685,7.685,0,0,0,0-10.875m-.321,9.779a7.68,7.68,0,0,0-1.149-.851,12.486,12.486,0,0,0,.464-3h2.261a6.649,6.649,0,0,1-1.575,3.852M88.505,308.1h2.261a12.486,12.486,0,0,0,.464,3,7.6,7.6,0,0,0-1.148.851,6.651,6.651,0,0,1-1.577-3.852m1.577-4.832a7.6,7.6,0,0,0,1.148.851,12.485,12.485,0,0,0-.464,3H88.505a6.654,6.654,0,0,1,1.577-3.852m4.626.952a6.668,6.668,0,0,1-2.284-.578,4.258,4.258,0,0,1,2.284-2.671Zm0,.981v1.918h-2.96a11.538,11.538,0,0,1,.371-2.541,7.64,7.64,0,0,0,2.589.623m0,2.9v1.918a7.641,7.641,0,0,0-2.589.623,11.538,11.538,0,0,1-.371-2.541Zm0,2.9v3.25a4.258,4.258,0,0,1-2.284-2.671A6.667,6.667,0,0,1,94.708,311m.98,0a6.659,6.659,0,0,1,2.284.579,4.254,4.254,0,0,1-2.284,2.671Zm0-.981V308.1h2.962a11.615,11.615,0,0,1-.373,2.541,7.641,7.641,0,0,0-2.589-.623m0-2.9V305.2a7.64,7.64,0,0,0,2.589-.623,11.616,11.616,0,0,1,.373,2.541Zm0-2.9v-3.25a4.254,4.254,0,0,1,2.284,2.671,6.66,6.66,0,0,1-2.284.578m2.2-2.761a6.709,6.709,0,0,1,1.738,1.109,6.8,6.8,0,0,1-.788.6,7.344,7.344,0,0,0-.95-1.708m-6.33,1.708a6.585,6.585,0,0,1-.788-.6,6.68,6.68,0,0,1,1.737-1.109,7.34,7.34,0,0,0-.949,1.708m0,8.884a7.341,7.341,0,0,0,.949,1.708,6.68,6.68,0,0,1-1.737-1.109,6.693,6.693,0,0,1,.788-.6m7.28,0a6.8,6.8,0,0,1,.788.6,6.709,6.709,0,0,1-1.738,1.109,7.345,7.345,0,0,0,.95-1.708m.791-4.932a12.42,12.42,0,0,0-.464-3,7.682,7.682,0,0,0,1.149-.851,6.653,6.653,0,0,1,1.575,3.852Z" transform="translate(-87.506 -299.92)" fill="#ffd4dd"/>
                </g>
              </g>
            </g>
            <path id="Trazado_183892" data-name="Trazado 183892" d="M231.547,372.215H230.1a.573.573,0,0,1,0-1.145h1.452a.573.573,0,0,1,0,1.145m-6.026,0h-2.288a.573.573,0,0,1,0-1.145h2.288a.573.573,0,0,1,0,1.145m-6.864,0h-2.288a.573.573,0,0,1,0-1.145h2.288a.573.573,0,0,1,0,1.145m-6.863,0h-2.288a.573.573,0,0,1,0-1.145h2.288a.573.573,0,0,1,0,1.145m-6.864,0h-2.288a.573.573,0,0,1,0-1.145h2.288a.573.573,0,0,1,0,1.145m-6.864,0h-2.288a.573.573,0,0,1,0-1.145h2.288a.573.573,0,0,1,0,1.145m-6.864,0h-2.288a.573.573,0,0,1,0-1.145H191.2a.573.573,0,0,1,0,1.145m-6.863,0h-2.288a.573.573,0,0,1,0-1.145h2.288a.573.573,0,0,1,0,1.145m-6.864,0h-2.288a.573.573,0,0,1,0-1.145h2.288a.573.573,0,0,1,0,1.145m-6.863,0h-2.288a.573.573,0,0,1,0-1.145h2.288a.573.573,0,0,1,0,1.145m-6.864,0H161.46a.573.573,0,0,1,0-1.145h2.288a.573.573,0,0,1,0,1.145m-6.864,0H154.6a.573.573,0,0,1,0-1.145h2.288a.573.573,0,0,1,0,1.145m-6.864,0h-.373a.572.572,0,0,1-.572-.572v-1.915a.572.572,0,1,1,1.144,0v1.379a.572.572,0,0,1-.2,1.109m-.373-6.49a.573.573,0,0,1-.572-.573v-2.288a.572.572,0,1,1,1.144,0v2.288a.574.574,0,0,1-.572.573m0-6.864a.572.572,0,0,1-.572-.572V356a.572.572,0,1,1,1.144,0v2.288a.573.573,0,0,1-.572.572m0-6.863a.573.573,0,0,1-.572-.573v-2.288a.572.572,0,1,1,1.144,0v2.288a.574.574,0,0,1-.572.573m0-6.864a.572.572,0,0,1-.572-.572v-2.288a.572.572,0,1,1,1.144,0v2.288a.573.573,0,0,1-.572.572m0-6.865a.571.571,0,0,1-.572-.571V335.41a.572.572,0,1,1,1.144,0V337.7a.572.572,0,0,1-.572.571m0-6.862a.572.572,0,0,1-.572-.573v-2.288a.572.572,0,0,1,1.144,0v2.288a.573.573,0,0,1-.572.573m0-6.864a.572.572,0,0,1-.572-.572v-2.288a.572.572,0,1,1,1.144,0v2.288a.573.573,0,0,1-.572.572m0-6.863a.573.573,0,0,1-.572-.573v-2.288a.572.572,0,1,1,1.144,0v2.288a.574.574,0,0,1-.572.573m0-6.864a.572.572,0,0,1-.572-.572v-2.289a.572.572,0,1,1,1.144,0v2.289a.573.573,0,0,1-.572.572m0-6.864a.573.573,0,0,1-.572-.573V301.09a.572.572,0,0,1,1.144,0v2.288a.574.574,0,0,1-.572.573m0-6.864a.572.572,0,0,1-.572-.573v-2.287a.572.572,0,1,1,1.144,0v2.287a.573.573,0,0,1-.572.573m0-6.865a.571.571,0,0,1-.572-.571v-2.288a.572.572,0,0,1,1.144,0v2.288a.572.572,0,0,1-.572.571m0-6.863a.571.571,0,0,1-.572-.572V280.5a.572.572,0,1,1,1.144,0v2.288a.572.572,0,0,1-.572.572m0-6.863a.572.572,0,0,1-.572-.572v-2.288a.572.572,0,1,1,1.144,0v2.288a.573.573,0,0,1-.572.572m0-6.863a.573.573,0,0,1-.572-.573v-2.288a.572.572,0,1,1,1.144,0v2.288a.574.574,0,0,1-.572.573m0-6.864a.572.572,0,0,1-.572-.572v-2.288a.572.572,0,1,1,1.144,0V262.2a.573.573,0,0,1-.572.572m0-6.864a.572.572,0,0,1-.572-.572v-2.288a.572.572,0,0,1,1.144,0v2.288a.573.573,0,0,1-.572.572m0-6.864a.571.571,0,0,1-.572-.572v-2.288a.572.572,0,0,1,1.144,0v2.288a.572.572,0,0,1-.572.572m0-6.864a.571.571,0,0,1-.572-.572v-2.287a.572.572,0,1,1,1.144,0V241.6a.572.572,0,0,1-.572.572m0-6.863a.572.572,0,0,1-.572-.572v-2.288a.572.572,0,1,1,1.144,0v2.288a.573.573,0,0,1-.572.572m0-6.864a.572.572,0,0,1-.572-.572V225.59a.572.572,0,1,1,1.144,0v2.288a.573.573,0,0,1-.572.572m0-6.864a.571.571,0,0,1-.572-.572v-2.288a.572.572,0,0,1,1.144,0v2.288a.572.572,0,0,1-.572.572m0-6.863a.572.572,0,0,1-.572-.572v-2.288a.572.572,0,1,1,1.144,0v2.288a.573.573,0,0,1-.572.572m0-6.864a.571.571,0,0,1-.572-.572V205a.572.572,0,1,1,1.144,0v2.288a.572.572,0,0,1-.572.572m0-6.864a.571.571,0,0,1-.572-.572v-2.288a.572.572,0,1,1,1.144,0v2.288a.572.572,0,0,1-.572.572m0-6.864a.571.571,0,0,1-.572-.572V191.27a.572.572,0,0,1,1.144,0v2.288a.572.572,0,0,1-.572.572m0-6.863a.572.572,0,0,1-.572-.572v-2.288a.572.572,0,1,1,1.144,0V186.7a.573.573,0,0,1-.572.572m0-6.864a.572.572,0,0,1-.572-.572v-2.288a.572.572,0,1,1,1.144,0v2.288a.573.573,0,0,1-.572.572m0-6.863a.572.572,0,0,1-.572-.572v-2.288a.572.572,0,1,1,1.144,0v2.288a.573.573,0,0,1-.572.572m0-6.864a.571.571,0,0,1-.572-.572v-2.288a.572.572,0,1,1,1.144,0V166.1a.572.572,0,0,1-.572.572m0-6.864a.571.571,0,0,1-.572-.572v-2.288a.572.572,0,1,1,1.144,0v2.288a.572.572,0,0,1-.572.572m0-6.864a.571.571,0,0,1-.572-.572v-2.287a.572.572,0,1,1,1.144,0v2.287a.572.572,0,0,1-.572.572m0-6.863a.572.572,0,0,1-.572-.572v-2.288a.572.572,0,1,1,1.144,0v2.288a.573.573,0,0,1-.572.572m0-6.864a.571.571,0,0,1-.572-.572v-2.288a.572.572,0,0,1,1.144,0v2.288a.572.572,0,0,1-.572.572m0-6.863a.572.572,0,0,1-.572-.572V129.5a.572.572,0,0,1,1.144,0v2.289a.573.573,0,0,1-.572.572m0-6.864a.572.572,0,0,1-.572-.572v-2.288a.572.572,0,0,1,1.144,0v2.288a.573.573,0,0,1-.572.572m0-6.864a.572.572,0,0,1-.572-.572V115.77a.572.572,0,1,1,1.144,0v2.288a.573.573,0,0,1-.572.572m-3.931-2.933h-2.288a.572.572,0,0,1,0-1.144h2.288a.572.572,0,1,1,0,1.144m-6.863,0h-2.288a.572.572,0,1,1,0-1.144h2.288a.572.572,0,1,1,0,1.144m-6.864,0H129.7a.572.572,0,0,1,0-1.144h2.288a.572.572,0,1,1,0,1.144m-6.864,0h-2.288a.572.572,0,1,1,0-1.144h2.288a.572.572,0,0,1,0,1.144m-6.864,0h-2.287a.572.572,0,1,1,0-1.144h2.287a.572.572,0,1,1,0,1.144m-6.863,0h-2.288a.572.572,0,1,1,0-1.144H111.4a.572.572,0,1,1,0,1.144m-6.864,0h-2.288a.572.572,0,1,1,0-1.144h2.288a.572.572,0,0,1,0,1.144m-6.864,0H95.381a.572.572,0,1,1,0-1.144h2.288a.572.572,0,1,1,0,1.144m-6.863,0H88.518a.572.572,0,1,1,0-1.144h2.288a.572.572,0,1,1,0,1.144m-6.864,0H81.654a.572.572,0,1,1,0-1.144h2.288a.572.572,0,1,1,0,1.144" transform="translate(24.567 34.708)" fill="#1e3094"/>
            <path id="Trazado_183893" data-name="Trazado 183893" d="M225.163,267.6h-38a11.942,11.942,0,0,0-11.95,11.727v89.048a11.829,11.829,0,0,0,11.834,11.714l38.064-.042a11.752,11.752,0,0,0,11.744-11.715l.056-89.011a11.729,11.729,0,0,0-11.746-11.72" transform="translate(53.087 81.079)" fill="#424880"/>
            <path id="Trazado_183894" data-name="Trazado 183894" d="M222.764,269.166H185.176a11.811,11.811,0,0,0-11.819,11.6v88.076a11.7,11.7,0,0,0,11.7,11.586l37.649-.04A11.626,11.626,0,0,0,234.328,368.8l.055-88.04a11.6,11.6,0,0,0-11.619-11.593" transform="translate(52.525 81.555)" fill="#6b72b5"/>
            <path id="Trazado_183895" data-name="Trazado 183895" d="M193.088,274.5h10.9a1.738,1.738,0,1,1,0,3.476h-10.9a1.738,1.738,0,1,1,0-3.476" transform="translate(57.977 83.172)" fill="#424880"/>
            <path id="Trazado_183896" data-name="Trazado 183896" d="M187.772,275.041a1.8,1.8,0,0,1,2.46,0,1.734,1.734,0,1,1-2.46,0" transform="translate(56.74 83.187)" fill="#424880"/>
            <path id="Trazado_183897" data-name="Trazado 183897" d="M197.809,354.33a5.2,5.2,0,1,1,5.2-5.2,5.209,5.209,0,0,1-5.2,5.2" transform="translate(58.358 104.206)" fill="#424880"/>
            <path id="Trazado_183898" data-name="Trazado 183898" d="M223.6,281.842H182a3.971,3.971,0,0,0-3.972,3.97V355.23A3.971,3.971,0,0,0,182,359.2H223.18a4.391,4.391,0,0,0,4.391-4.391v-69a3.97,3.97,0,0,0-3.97-3.97" transform="translate(53.94 85.395)" fill="#dde2ff"/>
            <path id="Trazado_183899" data-name="Trazado 183899" d="M220.959,315.76a19.316,19.316,0,1,1-19.316-19.316,19.317,19.317,0,0,1,19.316,19.316" transform="translate(55.243 89.82)" fill="#f24dc3"/>
            <path id="Trazado_183900" data-name="Trazado 183900" d="M201.729,302.053a7.29,7.29,0,0,0-6,8.368,7.168,7.168,0,0,0,.391,1.418l-.736.533a.456.456,0,0,0,0,.739l.676.485-.374.522-.713.117a.457.457,0,0,0-.375.524l.119.711-.53.74-.713.117a.453.453,0,0,0-.374.522l.117.713-.53.739-.713.117a.455.455,0,0,0-.374.524l.117.711-1.39,1.939a.455.455,0,0,0-.079.339l.593,3.592a.455.455,0,0,0,.523.375l3.592-.593a.457.457,0,0,0,.3-.184l5.733-8,.676.485a.455.455,0,0,0,.7-.236l.268-.868a7.278,7.278,0,1,0-.9-14.453m-2.57,13.2-5.248,7.322a.457.457,0,0,1-.636.106.457.457,0,0,1-.1-.636l5.248-7.321a.455.455,0,0,1,.74.53m6-6.389a2.275,2.275,0,1,1,1.875-2.615,2.278,2.278,0,0,1-1.875,2.615" transform="translate(57.642 91.489)" fill="#ffd4dd"/>
            <g id="Grupo_151497" data-name="Grupo 151497" transform="translate(231.966 367.237)" opacity="0.3">
              <g id="Grupo_151496" data-name="Grupo 151496">
                <g id="Grupo_151495" data-name="Grupo 151495" clip-path="url(#clip-path-14)">
                  <path id="Trazado_183901" data-name="Trazado 183901" d="M212.727,281.842l-34.7,52.612v7.569l39.694-60.181Z" transform="translate(-178.026 -281.842)" fill="#fff"/>
                </g>
              </g>
            </g>
            <g id="Grupo_151500" data-name="Grupo 151500" transform="translate(231.966 367.243)" opacity="0.3">
              <g id="Grupo_151499" data-name="Grupo 151499">
                <g id="Grupo_151498" data-name="Grupo 151498" clip-path="url(#clip-path-15)">
                  <path id="Trazado_183902" data-name="Trazado 183902" d="M224.265,281.846l-46.239,70.1v3.635a3.612,3.612,0,0,0,3.612,3.613h9.505l36.428-55.227V285.2a3.357,3.357,0,0,0-3.306-3.354" transform="translate(-178.026 -281.846)" fill="#fff"/>
                </g>
              </g>
            </g>
            <path id="Trazado_183909" data-name="Trazado 183909" d="M65.074,223.489c1.028-3.54,3.609-8.146,7.669-9.924.417-.18.748.3.337.554-4.058,2.6-5.406,5.813-7.742,9.415-.085.132-.315.124-.265-.046" transform="translate(19.714 64.696)" fill="#b799f4"/>
            <path id="Trazado_183917" data-name="Trazado 183917" d="M201.843,226.46c-.383-3.9-2.182-9.225-6.081-11.877-.4-.27-.84.163-.461.513,3.736,3.51,4.517,7.134,6.256,11.359.064.154.306.19.287,0" transform="translate(59.13 64.991)" fill="#b799f4"/>
            <path id="Trazado_183919" data-name="Trazado 183919" d="M249.239,262.369,63.5,261.085V161.631a7.734,7.734,0,0,1,7.735-7.733H241.6a7.561,7.561,0,0,1,7.56,7.56Z" transform="translate(19.239 46.63)" fill="#424880"/>
            <path id="Trazado_183920" data-name="Trazado 183920" d="M247.972,262.27H62.31V161.6a6.521,6.521,0,0,1,6.52-6.521H241.6a6.374,6.374,0,0,1,6.374,6.374Z" transform="translate(18.879 46.989)" fill="#6b72b5"/>
            <path id="Trazado_183921" data-name="Trazado 183921" d="M257.835,237.146l-187.526.261-34.4,11.671c-1.914,3.837-.337,17.429,4.953,17.429H285.418c5.173,0,12.673-15.245,6.413-18.543Z" transform="translate(10.642 71.853)" fill="#424880"/>
            <path id="Trazado_183922" data-name="Trazado 183922" d="M255.97,237.345H70.307l-34.4,11.671c-1.914,3.663-.337,4.123,4.953,4.123H285.418c5.172,0,9.57-.666,5.742-4.123Z" transform="translate(10.642 71.913)" fill="#6b72b5"/>
            <path id="Trazado_183923" data-name="Trazado 183923" d="M177.337,248.219H107.973c-1.938,0-3.306-.864-2.693-1.7l3.435-4.686a3.572,3.572,0,0,1,2.693-.882h62.5a3.578,3.578,0,0,1,2.695.882l3.433,4.686c.614.835-.756,1.7-2.693,1.7" transform="translate(31.854 73.006)" fill="#424880"/>
            <path id="Trazado_183924" data-name="Trazado 183924" d="M235.274,260.2l-4.623-.2-4.57.124-4.568.3-4.566-.39-4.567.472-4.567-.584-4.572.09-4.567.04-4.567-.086-4.57.5-4.571-.2-4.568-.154-4.568.306-4.572-.145-4.568.245-4.571-.038-4.571-.714-4.571.262-4.57.211-4.572.091-4.566-.237-4.571-.332-4.566.681-4.572.063-4.568-.47-4.572-.279-4.571.175-4.572.15-4.575.073-4.575-.356-4.568.732-4.575-.1-4.575-.132-4.576-.347-4.584-.16-4.8.573-.178-4.848.616-4.639-.214-4.639.2-4.639-.38-4.633.081-4.639.465-4.635-.778-4.639.625-4.636-.612-4.641.481-4.637.07-4.64.066-4.643-.115-4.643-.466-4.643.465-4.641,0-4.641-.238-4.643-.126-4.65.129-4.65,1.244-3.686,3.686-1.341,4.559-.081,4.557-.109,4.557.2,4.558.571,4.56-.568,4.559-.164,4.557.111,4.559-.046,4.56.648,4.559-.5,4.559.073,4.56.04,4.559-.223,4.562.619,4.56-.49,4.56-.251,4.56.207,4.562.58,4.557-.532,4.56-.132,4.557.6,4.562-.64,4.558-.09,4.563.24,4.56-.034,4.563-.158,4.564.68,4.564-.158,4.559.126,4.564-.429,4.566.469,4.566-.5,4.574.577,4.574-.007,3.273.986,1.092,3.272-.022,4.645.072,4.646.422,4.645-.559,4.648.375,4.64-.128,4.646.349,4.641.143,4.645-.724,4.644.3,4.649.19,4.645-.5,4.648.435,4.649.306,4.649-.19,4.65.16,4.648L235,246.174l.388,4.65-.113,4.657Z" transform="translate(21.291 49.119)" fill="#adbcef"/>
            <path id="Trazado_183925" data-name="Trazado 183925" d="M179.055,208.232a36.314,36.314,0,1,1-36.314-36.314,36.315,36.315,0,0,1,36.314,36.314" transform="translate(32.246 52.089)" fill="#ffd4dd"/>
            <path id="Trazado_183926" data-name="Trazado 183926" d="M135.193,201.267a3.859,3.859,0,0,0-3.856,3.856,3.813,3.813,0,0,0,1.578,3.1l-.609,5.467a.963.963,0,0,0,.958,1.071h3.857a.963.963,0,0,0,.958-1.071l-.608-5.467a3.813,3.813,0,0,0,1.578-3.1,3.859,3.859,0,0,0-3.856-3.856" transform="translate(39.794 60.982)" fill="#ffd4dd"/>
            <path id="Trazado_183927" data-name="Trazado 183927" d="M154.717,199.384h-2.891v-3.856a13.5,13.5,0,1,0-26.99,0v3.856h-2.891a.964.964,0,0,0-.964.964v24.1a3.859,3.859,0,0,0,3.856,3.856h26.99a3.859,3.859,0,0,0,3.856-3.856v-24.1a.964.964,0,0,0-.964-.964m-14.109,14.668.608,5.469a.963.963,0,0,1-.959,1.07H136.4a.963.963,0,0,1-.958-1.07l.607-5.469a3.815,3.815,0,0,1-1.577-3.1,3.856,3.856,0,1,1,7.711,0,3.813,3.813,0,0,1-1.578,3.1m5.433-14.668H130.62v-3.856a7.711,7.711,0,1,1,15.422,0v3.856Z" transform="translate(36.656 55.154)" fill="#f24dc3"/>
            <g id="Grupo_151503" data-name="Grupo 151503" transform="translate(118.697 211.642)" opacity="0.3">
              <g id="Grupo_151502" data-name="Grupo 151502">
                <g id="Grupo_151501" data-name="Grupo 151501" clip-path="url(#clip-path-16)">
                  <path id="Trazado_183928" data-name="Trazado 183928" d="M91.1,260.044h6.409l64.385-97.616H155.48Z" transform="translate(-91.096 -162.428)" fill="#fff"/>
                </g>
              </g>
            </g>
            <g id="Grupo_151506" data-name="Grupo 151506" transform="translate(140.774 211.642)" opacity="0.3">
              <g id="Grupo_151505" data-name="Grupo 151505">
                <g id="Grupo_151504" data-name="Grupo 151504" clip-path="url(#clip-path-17)">
                  <path id="Trazado_183929" data-name="Trazado 183929" d="M108.039,260.044h38.847l64.386-97.616H172.423Z" transform="translate(-108.039 -162.428)" fill="#fff"/>
                </g>
              </g>
            </g>
            <path id="Trazado_183930" data-name="Trazado 183930" d="M119.32,157.264H46.39a9.121,9.121,0,0,1-9.121-9.121V47.4a9.122,9.122,0,0,1,9.121-9.122h72.93a9.122,9.122,0,0,1,9.121,9.122V148.143a9.121,9.121,0,0,1-9.121,9.121" transform="translate(11.292 11.597)" fill="#424880"/>
            <path id="Trazado_183931" data-name="Trazado 183931" d="M119.144,159.264H42.566a7.3,7.3,0,0,1-7.3-7.3V47.573a7.3,7.3,0,0,1,7.3-7.3h76.578a7.3,7.3,0,0,1,7.3,7.3V151.967a7.3,7.3,0,0,1-7.3,7.3" transform="translate(10.686 12.203)" fill="#6b72b5"/>
            <path id="Trazado_183932" data-name="Trazado 183932" d="M76.679,126.191a5.212,5.212,0,1,1-5.212-5.212,5.212,5.212,0,0,1,5.212,5.212" transform="translate(20.075 36.655)" fill="#424880"/>
            <path id="Trazado_183933" data-name="Trazado 183933" d="M114.027,140.655H44.45a3.844,3.844,0,0,1-3.844-3.844V50.237a3.844,3.844,0,0,1,3.844-3.844h69.577a3.844,3.844,0,0,1,3.844,3.844v86.575a3.844,3.844,0,0,1-3.844,3.844" transform="translate(12.303 14.057)" fill="#dde2ff"/>
            <path id="Trazado_183934" data-name="Trazado 183934" d="M100.729,88.906A24.725,24.725,0,1,1,76,64.182a24.724,24.724,0,0,1,24.724,24.724" transform="translate(15.537 19.447)" fill="#f24dc3"/>
            <path id="Trazado_183935" data-name="Trazado 183935" d="M87.618,85.594H82.5V83.821a5.408,5.408,0,0,0,4.547-5.333V77.351a.853.853,0,0,0-1.706,0v1.136A3.7,3.7,0,0,1,82.5,82.083v-.752a1.423,1.423,0,0,0-1.422-1.422h-.853v-.34a3.7,3.7,0,0,0-2.981-3.625l.635-1.429a.853.853,0,0,0-1.558-.692l-.912,2.051h-3.44l-.911-2.051a.853.853,0,1,0-1.558.692l.635,1.429a3.7,3.7,0,0,0-2.983,3.625v.34H66.3a1.422,1.422,0,0,0-1.422,1.422v.752a3.7,3.7,0,0,1-2.842-3.595V77.351a.853.853,0,0,0-1.706,0v1.136a5.409,5.409,0,0,0,4.547,5.333v1.773H59.763a.853.853,0,0,0,0,1.706H64.88v1.772A5.408,5.408,0,0,0,60.333,94.4v1.138a.853.853,0,0,0,1.706,0V94.4A3.7,3.7,0,0,1,64.88,90.81v.469a8.811,8.811,0,0,0,17.623,0v-.468A3.7,3.7,0,0,1,85.345,94.4v1.138a.853.853,0,0,0,1.706,0V94.4A5.41,5.41,0,0,0,82.5,89.072V87.3h5.117a.853.853,0,0,0,0-1.706" transform="translate(17.849 22.214)" fill="#ffd4dd"/>
            <g id="Grupo_151509" data-name="Grupo 151509" transform="translate(52.909 60.45)" opacity="0.3">
              <g id="Grupo_151508" data-name="Grupo 151508">
                <g id="Grupo_151507" data-name="Grupo 151507" clip-path="url(#clip-path-18)">
                  <path id="Trazado_183936" data-name="Trazado 183936" d="M90.3,46.393l-49.7,75.349v7.569L95.3,46.393Z" transform="translate(-40.606 -46.393)" fill="#fff"/>
                </g>
              </g>
            </g>
            <g id="Grupo_151512" data-name="Grupo 151512" transform="translate(53.353 60.45)" opacity="0.3">
              <g id="Grupo_151511" data-name="Grupo 151511">
                <g id="Grupo_151510" data-name="Grupo 151510" clip-path="url(#clip-path-19)">
                  <path id="Trazado_183937" data-name="Trazado 183937" d="M113.924,46.393h-12.18l-60.8,92.176a3.827,3.827,0,0,0,3.4,2.086H57.469l60.2-91.267a3.842,3.842,0,0,0-3.743-3" transform="translate(-40.946 -46.393)" fill="#fff"/>
                </g>
              </g>
            </g>
            <circle id="Elipse_4880" data-name="Elipse 4880" cx="37" cy="37" r="37" transform="translate(204 115.006)" fill="#fff"/>
            <path id="Trazado_183881" data-name="Trazado 183881" d="M208.535,130.133l-3.71-3.595a15.508,15.508,0,0,0,.608-3.121l4.82-1.962a1.1,1.1,0,0,0,.633-1.182l-1.023-5.022a1.094,1.094,0,0,0-1.045-.84l-5.205.081a15.759,15.759,0,0,0-1.844-2.7l2-4.735a1.1,1.1,0,0,0-.39-1.285l-4.272-2.826a1.094,1.094,0,0,0-1.334.146l-3.613,3.727a15.578,15.578,0,0,0-3.093-.592l-1.938-4.76a1.1,1.1,0,0,0-1.183-.635l-5.02,1.024a1.1,1.1,0,0,0-.842,1.046l.082,5.17a15.766,15.766,0,0,0-2.6,1.763l-4.759-2.007a1.1,1.1,0,0,0-1.285.388l-2.826,4.273a1.1,1.1,0,0,0,.145,1.337l3.706,3.591a15.854,15.854,0,0,0-.615,3.145l-4.736,1.927a1.1,1.1,0,0,0-.633,1.183l1.024,5.023a1.09,1.09,0,0,0,1.042.839l5.114-.082a15.762,15.762,0,0,0,1.737,2.588l-2.016,4.781a1.1,1.1,0,0,0,.388,1.286l4.274,2.826a1.1,1.1,0,0,0,1.336-.145l3.575-3.69a15.787,15.787,0,0,0,3.174.635l1.949,4.794a1.1,1.1,0,0,0,1.186.635l5.02-1.024a1.091,1.091,0,0,0,.839-1.044l-.082-5.147a15.774,15.774,0,0,0,2.689-1.818l4.753,2a1.1,1.1,0,0,0,1.286-.39l2.826-4.273a1.086,1.086,0,0,0-.142-1.336m-22.177,0a8.8,8.8,0,1,1,9.572-1.945,8.808,8.808,0,0,1-9.572,1.945" transform="translate(51.066 30.544)" fill="#f24dc3"/>
          </g>
        </g>
      </g>
    </g>
    <text id="Información_pública_o_de_dominio_público" data-name="Información pública o de dominio público" transform="translate(-5672 -9993.793)" fill="#12263f" font-size="16" font-family="Roboto-Bold, Roboto" font-weight="700"><tspan x="-78.328" y="17">Información pública o </tspan><tspan x="-68.441" y="41">de dominio público</tspan></text>
    <text id="Información_privada" data-name="Información privada" transform="translate(-5672 -9795.793)" fill="#12263f" font-size="16" font-family="Roboto-Bold, Roboto" font-weight="700"><tspan x="-72.238" y="17">Información privada</tspan></text>
    <text id="Información_sensible_o_confidencial" data-name="Información sensible o confidencial" transform="translate(-5672 -9600.793)" fill="#12263f" font-size="16" font-family="Roboto-Bold, Roboto" font-weight="700"><tspan x="-75.727" y="17">Información sensible </tspan><tspan x="-50.574" y="41">o confidencial</tspan></text>
    <rect id="Rectángulo_59504" data-name="Rectángulo 59504" width="115" height="21" rx="10.5" transform="translate(-5648 -10108.793)" fill="#fff"/>
    <rect id="Rectángulo_59505" data-name="Rectángulo 59505" width="115" height="21" rx="10.5" transform="translate(-5648 -9911.793)" fill="#fff"/>
    <rect id="Rectángulo_59506" data-name="Rectángulo 59506" width="115" height="21" rx="10.5" transform="translate(-5648 -9716.793)" fill="#fff"/>
    <text id="Datos_básicos" data-name="Datos básicos" transform="translate(-5642 -10106.793)" fill="#1e3094" font-size="13" font-family="Roboto-Regular, Roboto"><tspan x="-41.098" y="14">Datos básicos</tspan></text>
    <text id="Ocacionan_riesgo" data-name="Ocacionan riesgo" transform="translate(-5642 -9908.793)" fill="#1e3094" font-size="13" font-family="Roboto-Regular, Roboto"><tspan x="-50.337" y="14">Ocacionan riesgo</tspan></text>
    <text id="Contraseñas" transform="translate(-5642 -9713.793)" fill="#1e3094" font-size="13" font-family="Roboto-Regular, Roboto"><tspan x="-36.524" y="14">Contraseñas</tspan></text>
    <path id="Trazado_205751" data-name="Trazado 205751" d="M232.971,202.852h-2.289a.572.572,0,0,1,0-1.144h2.289a.572.572,0,0,1,0,1.144m-6.864,0h-2.288a.572.572,0,1,1,0-1.144h2.288a.572.572,0,0,1,0,1.144m-6.864,0h-2.288a.572.572,0,0,1,0-1.144h2.288a.572.572,0,1,1,0,1.144m-6.863,0h-2.288a.572.572,0,0,1,0-1.144h2.288a.572.572,0,0,1,0,1.144m-6.864,0h-2.288a.572.572,0,0,1,0-1.144h2.288a.572.572,0,0,1,0,1.144m-6.864,0h-2.288a.572.572,0,0,1,0-1.144h2.288a.572.572,0,0,1,0,1.144m-6.864,0H189.5a.572.572,0,1,1,0-1.144h2.287a.572.572,0,1,1,0,1.144m-6.863,0h-2.288a.572.572,0,0,1,0-1.144h2.288a.572.572,0,1,1,0,1.144m-6.864,0h-2.288a.572.572,0,0,1,0-1.144h2.288a.572.572,0,0,1,0,1.144m-6.863,0H168.91a.572.572,0,0,1,0-1.144H171.2a.572.572,0,0,1,0,1.144" transform="translate(-5678.543 -10251.684)" fill="#1e3094"/>
    <path id="Trazado_205752" data-name="Trazado 205752" d="M232.971,202.852h-2.289a.572.572,0,0,1,0-1.144h2.289a.572.572,0,0,1,0,1.144m-6.864,0h-2.288a.572.572,0,1,1,0-1.144h2.288a.572.572,0,0,1,0,1.144m-6.864,0h-2.288a.572.572,0,0,1,0-1.144h2.288a.572.572,0,1,1,0,1.144m-6.863,0h-2.288a.572.572,0,0,1,0-1.144h2.288a.572.572,0,0,1,0,1.144m-6.864,0h-2.288a.572.572,0,0,1,0-1.144h2.288a.572.572,0,0,1,0,1.144m-6.864,0h-2.288a.572.572,0,0,1,0-1.144h2.288a.572.572,0,0,1,0,1.144m-6.864,0H189.5a.572.572,0,1,1,0-1.144h2.287a.572.572,0,1,1,0,1.144m-6.863,0h-2.288a.572.572,0,0,1,0-1.144h2.288a.572.572,0,1,1,0,1.144m-6.864,0h-2.288a.572.572,0,0,1,0-1.144h2.288a.572.572,0,0,1,0,1.144m-6.863,0H168.91a.572.572,0,0,1,0-1.144H171.2a.572.572,0,0,1,0,1.144" transform="translate(-5678.543 -10055.684)" fill="#1e3094"/>
    <path id="Trazado_205753" data-name="Trazado 205753" d="M232.971,202.852h-2.289a.572.572,0,0,1,0-1.144h2.289a.572.572,0,0,1,0,1.144m-6.864,0h-2.288a.572.572,0,1,1,0-1.144h2.288a.572.572,0,0,1,0,1.144m-6.864,0h-2.288a.572.572,0,0,1,0-1.144h2.288a.572.572,0,1,1,0,1.144m-6.863,0h-2.288a.572.572,0,0,1,0-1.144h2.288a.572.572,0,0,1,0,1.144m-6.864,0h-2.288a.572.572,0,0,1,0-1.144h2.288a.572.572,0,0,1,0,1.144m-6.864,0h-2.288a.572.572,0,0,1,0-1.144h2.288a.572.572,0,0,1,0,1.144m-6.864,0H189.5a.572.572,0,1,1,0-1.144h2.287a.572.572,0,1,1,0,1.144m-6.863,0h-2.288a.572.572,0,0,1,0-1.144h2.288a.572.572,0,1,1,0,1.144m-6.864,0h-2.288a.572.572,0,0,1,0-1.144h2.288a.572.572,0,0,1,0,1.144m-6.863,0H168.91a.572.572,0,0,1,0-1.144H171.2a.572.572,0,0,1,0,1.144" transform="translate(-5678.543 -9859.684)" fill="#1e3094"/>
    <g id="Grupo_196487" data-name="Grupo 196487" transform="translate(-5596.676 -21237.832)">
      <path id="Trazado_113582" data-name="Trazado 113582" d="M17,0A17,17,0,1,1,0,17,17,17,0,0,1,17,0Z" transform="translate(154.676 11172)" fill="#f24dc3"/>
      <text id="_3" data-name="+" transform="translate(171.676 11198)" fill="#fff" font-size="26" font-family="Roboto-Black, Roboto" font-weight="800"><tspan x="-6.944" y="0">+</tspan></text>
    </g>
    <g id="Grupo_196490" data-name="Grupo 196490" transform="translate(-5596.676 -21041.832)">
      <path id="Trazado_113582-2" data-name="Trazado 113582" d="M17,0A17,17,0,1,1,0,17,17,17,0,0,1,17,0Z" transform="translate(154.676 11172)" fill="#f24dc3"/>
      <text id="_4" data-name="+" transform="translate(171.676 11198)" fill="#fff" font-size="26" font-family="Roboto-Black, Roboto" font-weight="800"><tspan x="-6.944" y="0">+</tspan></text>
    </g>
    <g id="Grupo_196491" data-name="Grupo 196491" transform="translate(-5596.676 -20845.832)">
      <path id="Trazado_113582-3" data-name="Trazado 113582" d="M17,0A17,17,0,1,1,0,17,17,17,0,0,1,17,0Z" transform="translate(154.676 11172)" fill="#f24dc3"/>
      <text id="_5" data-name="+" transform="translate(171.676 11198)" fill="#fff" font-size="26" font-family="Roboto-Black, Roboto" font-weight="800"><tspan x="-6.944" y="0">+</tspan></text>
    </g>
  </g>
</svg>
