<svg xmlns="http://www.w3.org/2000/svg" xmlns:xlink="http://www.w3.org/1999/xlink" width="129.497" height="165.48" viewBox="0 0 129.497 165.48">
  <defs>
    <clipPath id="clip-path">
      <rect id="Rectángulo_59517" data-name="Rectángulo 59517" width="129.497" height="165.48" fill="#f24dc3"/>
    </clipPath>
  </defs>
  <g id="Grupo_196523" data-name="Grupo 196523" transform="translate(-1020 -3866.376)">
    <g id="Grupo_196514" data-name="Grupo 196514" transform="translate(1020 3866.377)">
      <g id="Grupo_196513" data-name="Grupo 196513" transform="translate(0 0)" clip-path="url(#clip-path)">
        <path id="Trazado_205760" data-name="Trazado 205760" d="M64.749,165.481a3.291,3.291,0,0,1-1.661-.451L27.273,144.224C9.786,134.057-.651,114.655.032,93.587L2.389,21.25a3.311,3.311,0,0,1,3.31-3.2H34.446L63.016.49a3.309,3.309,0,0,1,3.466,0l28.57,17.555h28.743a3.311,3.311,0,0,1,3.31,3.2l2.357,72.337c.687,21.068-9.75,40.47-27.237,50.637L66.411,165.03a3.3,3.3,0,0,1-1.661.451M8.9,24.666,6.648,93.8c-.607,18.635,8.573,35.76,23.952,44.7l34.149,19.836L98.9,138.5c15.379-8.94,24.559-26.065,23.948-44.7l-2.252-69.136H94.116a3.258,3.258,0,0,1-1.733-.493L64.749,7.195,37.111,24.172a3.254,3.254,0,0,1-1.729.493Z" transform="translate(0.002 0.001)" fill="#f24dc3"/>
        <path id="Trazado_205761" data-name="Trazado 205761" d="M51.157,67.028a3.26,3.26,0,0,1-1.661-.451L21.462,50.3A38.992,38.992,0,0,1,4.413,29.435a3.309,3.309,0,1,1,6.245-2.189A32.389,32.389,0,0,0,24.793,44.578L51.157,59.893,77.526,44.578A32.623,32.623,0,0,0,91.69,27.238a3.31,3.31,0,1,1,6.241,2.21A39.2,39.2,0,0,1,80.857,50.291L52.819,66.577a3.26,3.26,0,0,1-1.661.451" transform="translate(13.589 80.523)" fill="#f24dc3"/>
        <path id="Trazado_205762" data-name="Trazado 205762" d="M96.665,50.273a3.308,3.308,0,0,1-3.306-3.209L92.7,25.4H76.086a3.307,3.307,0,0,1-1.674-.455L51.864,11.73,29.308,24.946a3.284,3.284,0,0,1-1.674.455H11.011l-.388,11.727a3.208,3.208,0,0,1-3.416,3.2,3.309,3.309,0,0,1-3.2-3.416l.5-14.928a3.306,3.306,0,0,1,3.306-3.2H26.736L50.19,5.042a3.3,3.3,0,0,1,3.348,0L76.984,18.785h18.93a3.306,3.306,0,0,1,3.306,3.209l.755,24.867a3.315,3.315,0,0,1-3.209,3.411Z" transform="translate(12.882 14.758)" fill="#f24dc3"/>
        <path id="Trazado_205763" data-name="Trazado 205763" d="M23.945,56.76,15.8,56.739A12.412,12.412,0,0,1,3.4,44.341a3.31,3.31,0,1,1,6.621,0,5.791,5.791,0,0,0,5.781,5.781l8.147.017a5.824,5.824,0,0,0,5.794-5.8,5.8,5.8,0,0,0-5.8-5.786l-8.189-.017a12.4,12.4,0,0,1-.025-24.8h6.19A12.491,12.491,0,0,1,34.061,23.51,3.308,3.308,0,1,1,27.6,24.918a5.84,5.84,0,0,0-5.676-4.563H15.764A6.033,6.033,0,0,0,11.69,22.03a5.781,5.781,0,0,0,4.074,9.889l8.189.021a12.41,12.41,0,0,1-.008,24.821" transform="translate(10.815 44.186)" fill="#f24dc3"/>
        <path id="Trazado_205764" data-name="Trazado 205764" d="M32.9,56.76l-8.147-.021a12.412,12.412,0,0,1-12.394-12.4,3.31,3.31,0,1,1,6.621,0,5.791,5.791,0,0,0,5.781,5.781l8.147.017a5.819,5.819,0,0,0,4.1-1.716A5.678,5.678,0,0,0,38.7,44.341a5.8,5.8,0,0,0-5.8-5.786l-8.189-.017a12.375,12.375,0,0,1-12.394-12.4,11.981,11.981,0,0,1,.291-2.678,12.427,12.427,0,0,1,12.073-9.724h6.195A12.491,12.491,0,0,1,43.014,23.51a3.308,3.308,0,1,1-6.465,1.408,5.84,5.84,0,0,0-5.676-4.563H24.692a5.783,5.783,0,0,0-5.625,4.558,5.108,5.108,0,0,0-.131,1.223,5.745,5.745,0,0,0,5.781,5.781l8.189.021a12.421,12.421,0,0,1,12.41,12.4,12.256,12.256,0,0,1-3.656,8.792A12.406,12.406,0,0,1,32.9,56.76" transform="translate(39.616 44.186)" fill="#f24dc3"/>
        <path id="Trazado_205765" data-name="Trazado 205765" d="M44.21,56.759H24.955a3.308,3.308,0,0,1-3.31-3.31v-36.4a3.31,3.31,0,1,1,6.621,0V50.139H44.21a3.31,3.31,0,1,1,0,6.621" transform="translate(69.63 44.183)" fill="#f24dc3"/>
      </g>
    </g>
  </g>
</svg>
