<svg xmlns="http://www.w3.org/2000/svg" xmlns:xlink="http://www.w3.org/1999/xlink" width="190.11" height="190.11" viewBox="0 0 190.11 190.11">
  <defs>
    <clipPath id="clip-path">
      <path id="Trazado_189513" data-name="Trazado 189513" d="M3.314,95.055A91.741,91.741,0,1,1,95.056,186.8,91.845,91.845,0,0,1,3.314,95.055M95.056,0A95.055,95.055,0,1,0,190.11,95.055,95.161,95.161,0,0,0,95.056,0Z" transform="translate(0 -0.001)" fill="#fff"/>
    </clipPath>
    <clipPath id="clip-path-2">
      <path id="Trazado_189514" data-name="Trazado 189514" d="M26.244,112.011V29.185a7.987,7.987,0,0,1,7.977-7.979h50.7a7.987,7.987,0,0,1,7.977,7.979v82.826a7.985,7.985,0,0,1-7.977,7.977h-50.7a7.985,7.985,0,0,1-7.977-7.977m7.977-94.119A11.307,11.307,0,0,0,22.928,29.185v82.826A11.307,11.307,0,0,0,34.221,123.3h50.7A11.307,11.307,0,0,0,96.21,112.011V29.185A11.307,11.307,0,0,0,84.916,17.892Z" transform="translate(-22.928 -17.892)" fill="#fff"/>
    </clipPath>
    <clipPath id="clip-path-3">
      <path id="Trazado_189515" data-name="Trazado 189515" d="M47.918,19.549v102.1a1.657,1.657,0,1,0,3.314,0V19.549a1.657,1.657,0,0,0-3.314,0" transform="translate(-47.918 -17.892)" fill="#fff"/>
    </clipPath>
    <clipPath id="clip-path-4">
      <path id="Trazado_189516" data-name="Trazado 189516" d="M42.183,23.22v93.409a1.657,1.657,0,0,0,3.314,0V23.22a1.657,1.657,0,0,0-3.314,0" transform="translate(-42.183 -21.563)" fill="#fff"/>
    </clipPath>
    <clipPath id="clip-path-5">
      <path id="Trazado_189517" data-name="Trazado 189517" d="M32.556,35.839a1.657,1.657,0,0,0,3.314,0v-.021a1.649,1.649,0,0,0-1.657-1.647,1.666,1.666,0,0,0-1.657,1.669" transform="translate(-32.556 -34.17)" fill="#fff"/>
    </clipPath>
    <clipPath id="clip-path-6">
      <path id="Trazado_189518" data-name="Trazado 189518" d="M30.62,43.458a9.313,9.313,0,0,1,9.3-9.3h2.935a9.311,9.311,0,0,1,9.3,9.3v9.7h-5.3A1.659,1.659,0,0,0,45.2,54.82V74.41l-2.315.873a1.657,1.657,0,0,0-1.072,1.55v2.414L37.605,77.9V54.82a1.661,1.661,0,0,0-1.659-1.659H30.62Zm9.3-12.616A12.629,12.629,0,0,0,27.306,43.458V54.82a1.656,1.656,0,0,0,1.657,1.657h5.326V79.106a1.658,1.658,0,0,0,1.15,1.579L42.964,83.1a1.608,1.608,0,0,0,.507.08,1.661,1.661,0,0,0,1.657-1.657V77.977l2.317-.873a1.65,1.65,0,0,0,1.07-1.548V56.477h5.3a1.656,1.656,0,0,0,1.657-1.657V43.458A12.631,12.631,0,0,0,42.858,30.842Z" transform="translate(-27.306 -30.842)" fill="#fff"/>
    </clipPath>
    <clipPath id="clip-path-7">
      <path id="Trazado_189519" data-name="Trazado 189519" d="M57.986,27.242v4.649a1.658,1.658,0,0,0,3.316,0V27.242a1.658,1.658,0,1,0-3.316,0" transform="translate(-57.986 -25.583)" fill="#fff"/>
    </clipPath>
    <clipPath id="clip-path-8">
      <path id="Trazado_189520" data-name="Trazado 189520" d="M57.986,33.686v4.651a1.658,1.658,0,0,0,3.316,0V33.686a1.658,1.658,0,0,0-3.316,0" transform="translate(-57.986 -32.029)" fill="#fff"/>
    </clipPath>
    <clipPath id="clip-path-9">
      <path id="Trazado_189521" data-name="Trazado 189521" d="M57.986,40.133v4.651a1.658,1.658,0,0,0,3.316,0V40.133a1.658,1.658,0,0,0-3.316,0" transform="translate(-57.986 -38.476)" fill="#fff"/>
    </clipPath>
    <clipPath id="clip-path-10">
      <path id="Trazado_189522" data-name="Trazado 189522" d="M57.986,46.58v4.649a1.658,1.658,0,0,0,3.316,0V46.58a1.658,1.658,0,0,0-3.316,0" transform="translate(-57.986 -44.923)" fill="#fff"/>
    </clipPath>
    <clipPath id="clip-path-11">
      <path id="Trazado_189523" data-name="Trazado 189523" d="M57.986,53.027v4.649a1.658,1.658,0,0,0,3.316,0V53.027a1.658,1.658,0,1,0-3.316,0" transform="translate(-57.986 -51.368)" fill="#fff"/>
    </clipPath>
  </defs>
  <g id="Grupo_196526" data-name="Grupo 196526" transform="translate(-1020 -6002.62)">
    <g id="Grupo_172057" data-name="Grupo 172057" transform="translate(1020 6002.619)">
      <g id="Grupo_172036" data-name="Grupo 172036" transform="translate(0 0.001)">
        <g id="Grupo_172035" data-name="Grupo 172035" clip-path="url(#clip-path)">
          <rect id="Rectángulo_49128" data-name="Rectángulo 49128" width="235.878" height="235.878" transform="translate(-51.277 15.016) rotate(-16.323)" fill="#fff"/>
        </g>
      </g>
      <g id="Grupo_172038" data-name="Grupo 172038" transform="translate(54.272 42.35)">
        <g id="Grupo_172037" data-name="Grupo 172037" clip-path="url(#clip-path-2)">
          <rect id="Rectángulo_49129" data-name="Rectángulo 49129" width="99.954" height="121.759" transform="translate(-28.432 8.325) rotate(-16.323)" fill="#fff"/>
        </g>
      </g>
      <g id="Grupo_172040" data-name="Grupo 172040" transform="translate(113.425 42.35)">
        <g id="Grupo_172039" data-name="Grupo 172039" clip-path="url(#clip-path-3)">
          <rect id="Rectángulo_49130" data-name="Rectángulo 49130" width="32.807" height="102.095" transform="translate(-28.432 8.325) rotate(-16.323)" fill="#fff"/>
        </g>
      </g>
      <g id="Grupo_172042" data-name="Grupo 172042" transform="translate(99.85 51.039)">
        <g id="Grupo_172041" data-name="Grupo 172041" clip-path="url(#clip-path-4)">
          <rect id="Rectángulo_49131" data-name="Rectángulo 49131" width="30.364" height="93.755" transform="translate(-26.088 7.639) rotate(-16.323)" fill="#fff"/>
        </g>
      </g>
      <g id="Grupo_172044" data-name="Grupo 172044" transform="translate(77.062 80.881)">
        <g id="Grupo_172043" data-name="Grupo 172043" clip-path="url(#clip-path-5)">
          <rect id="Rectángulo_49132" data-name="Rectángulo 49132" width="4.115" height="4.123" transform="translate(-0.897 0.262) rotate(-16.323)" fill="#fff"/>
        </g>
      </g>
      <g id="Grupo_172046" data-name="Grupo 172046" transform="translate(64.635 73.003)">
        <g id="Grupo_172045" data-name="Grupo 172045" clip-path="url(#clip-path-6)">
          <rect id="Rectángulo_49133" data-name="Rectángulo 49133" width="41.742" height="58.143" transform="translate(-14.116 4.133) rotate(-16.323)" fill="#fff"/>
        </g>
      </g>
      <g id="Grupo_172048" data-name="Grupo 172048" transform="translate(137.256 60.555)">
        <g id="Grupo_172047" data-name="Grupo 172047" clip-path="url(#clip-path-7)">
          <rect id="Rectángulo_49134" data-name="Rectángulo 49134" width="5.421" height="8.576" transform="matrix(0.96, -0.281, 0.281, 0.96, -2.148, 0.628)" fill="#fff"/>
        </g>
      </g>
      <g id="Grupo_172050" data-name="Grupo 172050" transform="translate(137.256 75.813)">
        <g id="Grupo_172049" data-name="Grupo 172049" clip-path="url(#clip-path-8)">
          <rect id="Rectángulo_49135" data-name="Rectángulo 49135" width="5.421" height="8.576" transform="translate(-2.148 0.628) rotate(-16.323)" fill="#fff"/>
        </g>
      </g>
      <g id="Grupo_172052" data-name="Grupo 172052" transform="translate(137.256 91.073)">
        <g id="Grupo_172051" data-name="Grupo 172051" clip-path="url(#clip-path-9)">
          <rect id="Rectángulo_49136" data-name="Rectángulo 49136" width="5.421" height="8.576" transform="translate(-2.148 0.628) rotate(-16.323)" fill="#fff"/>
        </g>
      </g>
      <g id="Grupo_172054" data-name="Grupo 172054" transform="translate(137.256 106.334)">
        <g id="Grupo_172053" data-name="Grupo 172053" clip-path="url(#clip-path-10)">
          <rect id="Rectángulo_49137" data-name="Rectángulo 49137" width="5.421" height="8.574" transform="translate(-2.148 0.628) rotate(-16.323)" fill="#fff"/>
        </g>
      </g>
      <g id="Grupo_172056" data-name="Grupo 172056" transform="translate(137.256 121.59)">
        <g id="Grupo_172055" data-name="Grupo 172055" clip-path="url(#clip-path-11)">
          <rect id="Rectángulo_49138" data-name="Rectángulo 49138" width="5.421" height="8.576" transform="translate(-2.148 0.628) rotate(-16.323)" fill="#fff"/>
        </g>
      </g>
    </g>
  </g>
</svg>
